<svg xmlns="http://www.w3.org/2000/svg" width="44.671" height="35.824" viewBox="0 0 44.671 35.824">
    <defs>
        <filter id="e3p5nel2qa" x="7.446" y=".169" width="37.224" height="32.082" filterUnits="userSpaceOnUse">
            <feOffset dy="3"/>
            <feGaussianBlur stdDeviation="3" result="blur"/>
            <feFlood flood-opacity=".161"/>
            <feComposite operator="in" in2="blur"/>
            <feComposite in="SourceGraphic"/>
        </filter>
        <filter id="qnqnfogcsb" x="0" y="3.74" width="40.235" height="32.084" filterUnits="userSpaceOnUse">
            <feOffset dy="3"/>
            <feGaussianBlur stdDeviation="3" result="blur-2"/>
            <feFlood flood-opacity=".161"/>
            <feComposite operator="in" in2="blur-2"/>
            <feComposite in="SourceGraphic"/>
        </filter>
    </defs>
    <g data-name="broken cloudy_ic">
        <path data-name="사각형 6298" transform="translate(7.336)" style="fill:#fff" d="M0 0h30v30H0z"/>
        <g data-name="그룹 17269">
            <g style="filter:url(#e3p5nel2qa)" transform="translate(.002 -.004)">
                <path data-name="패스 38205" d="M18.974 8.919a4.981 4.981 0 0 0-4.915-5.047 4.612 4.612 0 0 0-1.158.153A6.785 6.785 0 0 0 .4 4.833a6.765 6.765 0 0 1 1.082-.268 5.879 5.879 0 0 1 10.751.182.455.455 0 0 0 .561.253 3.99 3.99 0 0 1 1.264-.223h.119a4.07 4.07 0 0 1 .569 8.091c0 .089.011.176.01.267a4.913 4.913 0 0 1-.055.643 4.98 4.98 0 0 0 4.273-4.859z" transform="translate(16.45 6.18)" style="stroke-width:.5px;fill:#999;stroke:#999"/>
            </g>
            <g style="filter:url(#qnqnfogcsb)" transform="translate(.002 -.004)">
                <path data-name="패스 5474" d="M16.754 13.584H4.075a4.07 4.07 0 0 1-1.256-7.943A6.791 6.791 0 0 1 15.6 3.776a4.652 4.652 0 0 1 1.157-.153 4.981 4.981 0 0 1 0 9.962zM9.509.906a5.89 5.89 0 0 0-5.835 5.148.453.453 0 0 1-.342.384 3.164 3.164 0 0 0 .744 6.241h12.678a4.075 4.075 0 1 0 0-8.151 4 4 0 0 0-1.264.223.455.455 0 0 1-.559-.254A5.879 5.879 0 0 0 9.509.906zm0 0" transform="translate(9.25 9.99)" style="fill:#c7c7c7;stroke:#c6c7c6;stroke-width:.5px"/>
            </g>
        </g>
    </g>
</svg>
