<svg xmlns="http://www.w3.org/2000/svg" width="43.506" height="36.439" viewBox="0 0 43.506 36.439">
    <defs>
        <filter id="ylmszht6ea" x="0" y="2.311" width="43.506" height="34.129" filterUnits="userSpaceOnUse">
            <feOffset dy="3"/>
            <feGaussianBlur stdDeviation="3" result="blur"/>
            <feFlood flood-opacity=".161"/>
            <feComposite operator="in" in2="blur"/>
            <feComposite in="SourceGraphic"/>
        </filter>
    </defs>
    <g data-name="few cloudy_ic">
        <path data-name="사각형 6298" transform="translate(6.753)" style="fill:#fff" d="M0 0h30v30H0z"/>
        <g data-name="그룹 17266">
            <path data-name="패스 38200" d="M10.838 9.166A5.663 5.663 0 1 0 .688 4.172" transform="translate(20.931 5.061)" style="fill:none;stroke:#eebf38;stroke-miterlimit:10;stroke-width:1.5px"/>
            <g style="filter:url(#ylmszht6ea)">
                <path data-name="패스 5474" d="M19.275 15.629H4.689A4.683 4.683 0 0 1 3.243 6.49a7.813 7.813 0 0 1 14.7-2.146 5.352 5.352 0 0 1 1.332-.176 5.731 5.731 0 0 1 0 11.461zM10.94 1.042a6.776 6.776 0 0 0-6.713 5.923.521.521 0 0 1-.394.442 3.64 3.64 0 0 0 .855 7.18h14.587a4.689 4.689 0 1 0 0-9.377 4.6 4.6 0 0 0-1.454.256.523.523 0 0 1-.643-.292 6.764 6.764 0 0 0-6.238-4.132zm0 0" transform="translate(9.251 8.561)" style="fill:#c7c7c7;stroke:#c6c7c6;stroke-width:.5px"/>
            </g>
        </g>
    </g>
</svg>
