<svg xmlns="http://www.w3.org/2000/svg" width="80" height="80" viewBox="0 0 80 80">
    <g transform="translate(-317 -232)">
        <circle data-name="타원 321" cx="40" cy="40" r="40" transform="translate(317 232)" style="fill:#f2f2f2"/>
        <g data-name="그룹 17083">
            <g data-name="그룹 14156">
                <path data-name="패스 5604" d="M29.749 4.048H25.7V3a2.1 2.1 0 1 0-4.2 0v1.048c-4.2-2.208-5.531-2.208-9.728 0V3a2.1 2.1 0 1 0-4.2 0v1.048H3.523A2.623 2.623 0 0 0 .9 6.671v20.986a2.623 2.623 0 0 0 2.623 2.623h11.015a.525.525 0 0 0 0-1.049H3.523a1.578 1.578 0 0 1-1.574-1.574V11.393h29.374v5.731a.525.525 0 1 0 1.049 0V6.671a2.623 2.623 0 0 0-2.623-2.623zM22.549 3a1.049 1.049 0 1 1 2.1 0v3.146a1.049 1.049 0 1 1-2.1 0zM8.625 3a1.049 1.049 0 1 1 2.1 0v3.146a1.049 1.049 0 1 1-2.1 0zm22.7 7.345H1.949V6.671A1.578 1.578 0 0 1 3.523 5.1h4.053v1.046a2.1 2.1 0 1 0 4.2 0V5.1c4.2 2.208 5.531 2.208 9.728 0v1.046a2.1 2.1 0 1 0 4.2 0V5.1h4.053a1.578 1.578 0 0 1 1.574 1.574z" transform="translate(340.364 255.364)" style="fill:#222"/>
                <path data-name="패스 5614" d="M24.289 16.2a8.089 8.089 0 1 0 8.089 8.089 8.089 8.089 0 0 0-8.089-8.089zm0 14.934a6.845 6.845 0 1 1 6.845-6.845 6.845 6.845 0 0 1-6.845 6.845z" transform="translate(340.357 255.357)" style="fill:#222"/>
                <path data-name="패스 5615" d="m25.6 20.185-4.068 4.068-1.848-1.853a.523.523 0 1 0-.74.74l2.218 2.219a.523.523 0 0 0 .739 0l4.437-4.437a.523.523 0 1 0-.74-.74z" transform="translate(342.005 256.874)" style="fill:#222"/>
                <path data-name="사각형 11730" transform="translate(352.136 256.479)" style="fill:#f2f2f2" d="M0 0h9.699v5.722H0z"/>
                <path data-name="사각형 11731" transform="translate(351.993 259.411)" style="fill:#222" d="M0 0h10.014v1.001H0z"/>
            </g>
            <path data-name="사각형 11716" transform="translate(337 252)" style="fill:none" d="M0 0h40v40H0z"/>
        </g>
    </g>
</svg>
