<svg xmlns="http://www.w3.org/2000/svg" width="33.6" height="33.6" viewBox="0 0 33.6 33.6">
    <g data-name="타원 433" transform="translate(.8 .8)" style="fill:#258fff;stroke:#fff;stroke-width:.8px">
        <circle cx="16" cy="16" r="16" style="stroke:none"/>
        <circle cx="16" cy="16" r="16.4" style="fill:none"/>
    </g>
    <path data-name="패스 38168" d="m6.716 6.125-5.152.035a.952.952 0 0 0-1 .729v-.008a.952.952 0 0 0 .378 1.18l4.148 3.087-1.482 4.938a.952.952 0 0 0 .4 1.172h-.007a.952.952 0 0 0 1.238-.007l4.184-3.038 4.2 3.021a.952.952 0 0 0 1.238 0h-.007a.952.952 0 0 0 .393-1.174l-1.524-4.941-.006.014 4.108-3.14a.952.952 0 0 0 .361-1.184v.008a.952.952 0 0 0-1.014-.717l-5.166.025-1.645-4.9a.952.952 0 0 0-1-.724h.008a.952.952 0 0 0-1 .724l-1.645 4.9" transform="translate(7.425 7.601)" style="fill:#fff"/>
</svg>
