<svg version="1.2" xmlns="http://www.w3.org/2000/svg" viewBox="0 0 256 256" width="256" height="256">
	<title>cancle_ic-svg</title>
	<style>
		.s0 { fill: #000000 } 
	</style>
	<g id="Layer">
		<path id="Layer" fill-rule="evenodd" class="s0" d="m128 256c-5.5 0-9.7-8.7-11.9-24.3-1.3-9.5-0.6-13.1 3.1-16.2 4.2-3.6 13.4-3.6 17.6 0 3.7 3.1 4.4 6.7 3.1 16.2-1.5 11.2-4.5 19.8-7.6 22.2-1.4 1.2-3.3 2.1-4.3 2.1zm0-16c0.6 0 3-12.7 3-16 0-0.6-1.4-1-3-1-3.4 0-3.4-0.4-1.9 9.5 0.6 4.1 1.5 7.5 1.9 7.5z"/>
		<path id="Layer" fill-rule="evenodd" class="s0" d="m191.6 231c-3-3.6-5-10-6.7-21-2.2-14.4 1.6-19.8 13.6-18.8 8.1 0.7 10.5 3.4 10.5 12.3 0 11.1-3.4 23.8-7.8 28.8-2.4 2.7-6.6 2.1-9.6-1.3zm3.8-18c1.2 6.7 1.9 6.5 3-1 0.3-1.9 0.8-5.2 1.1-7.2 0.6-3.7 0.5-3.8-2.5-3.8-2.6 0-3 0.3-3 2.8 0.1 1.5 0.7 5.6 1.4 9.2z"/>
		<path id="Layer" fill-rule="evenodd" class="s0" d="m54.8 232.3c-4.4-5-7.8-17.7-7.8-28.8 0-8.9 2.4-11.6 10.5-12.3 12-1 15.8 4.4 13.6 18.8-1.7 11-3.7 17.4-6.7 21-3 3.4-7.2 4-9.6 1.3zm6-20.2c1.8-10.6 1.7-11.1-1.9-11.1-2.8 0-3 0.2-2.5 2.8 0.3 1.5 0.8 5 1.1 7.7q1.5 12.1 3.3 0.6z"/>
		<path id="Layer" fill-rule="evenodd" class="s0" d="m128 209c-6.9 0-11-0.4-11.8-1.2-0.9-0.9-1.2-8.5-1.2-28v-26.8h-6.4c-4.5 0-6.7-0.5-7.6-1.5-1.8-2.1-0.7-11.2 1.9-16.3 2.6-5.1 10.1-11.7 15.4-13.5l4.2-1.4 0.3-24.2 0.2-24.2-25.7 0.3c-28.4 0.3-29 0.5-31.8 6.5-1.1 2.3-1.5 5.7-1.3 11.5l0.3 8.1 4.2 1.4c5.2 1.8 12.8 8.3 15.4 13.5 3 6 4.1 12.8 2.3 15.6-1.2 1.9-2.3 2.2-7.4 2.2h-5.9l-0.3 27c-0.2 20.4-0.6 27.2-1.6 28.2-1.9 1.9-21.3 1.8-23.5-0.1-1.5-1.2-1.7-4.4-1.7-28.2v-26.9h-6.3c-3.6 0-6.8-0.5-7.5-1.2-2.9-2.9-0.1-14.6 5-21.1 3.1-3.9 12-9.7 14.9-9.7 1.4 0 1.7-1.7 2.1-10.7 0.5-11.6 1.5-14.7 6.5-19.7 5.6-5.7 7.4-6 36-6.4l26.3-0.3v-25.7l-4.3-0.7c-20.4-3-34.7-11.6-38.9-23.2-2.2-6.1-2.2-8.2-0.1-10.5 1.5-1.7 4.3-1.8 48.1-1.8 41.9 0 46.7 0.2 48.4 1.7 2.2 2 2.2 4.4 0 10.6-4.2 11.6-18.5 20.2-39 23.2l-4.2 0.7v25.7l26.2 0.3c28.7 0.4 30.5 0.7 36.1 6.4 5 5 6 8.1 6.5 19.7 0.4 9 0.7 10.7 2.1 10.7 2.9 0 11.8 5.8 14.9 9.7 5.1 6.5 7.9 18.2 5 21.1-0.7 0.7-3.9 1.2-7.5 1.2h-6.3v26.9c0 23.8-0.2 27-1.7 28.2-2.2 1.9-21.6 2-23.5 0.1-1-1-1.4-7.8-1.6-28.2l-0.3-27h-5.9c-5.1 0-6.2-0.3-7.4-2.2-1.8-2.8-0.7-9.6 2.3-15.6 2.6-5.2 10.2-11.7 15.4-13.5l4.2-1.4 0.3-8.1c0.2-5.8-0.2-9.2-1.3-11.5-2.8-6-3.4-6.2-31.8-6.5l-25.7-0.3 0.2 24.2 0.3 24.2 4.2 1.4c5.3 1.8 12.8 8.4 15.4 13.5 2.6 5.1 3.7 14.2 1.9 16.3-0.9 1-3.1 1.5-7.6 1.5h-6.4v26.8c0 19.5-0.3 27.1-1.2 28-0.8 0.8-4.9 1.2-11.8 1.2zm-3.5-9.5l3.3 0.3c2 0.2 3.4-0.2 3.7-1 0.3-0.7 0.4-11.2 0.3-23.3l-0.3-22h-7zm68.5-21.5h7v-47h-7zm-137 0h7v-47h-7zm53.8-35h36.4l-1.9-3.1c-1-1.8-3.5-4.6-5.6-6.3-3.5-2.8-4.6-3.1-10.7-3.1-6.1 0-7.2 0.3-10.7 3.1-2.1 1.7-4.6 4.5-5.6 6.3zm69-22h17.6c9.7 0 17.6-0.4 17.6-0.9 0-2.1-4.9-7.8-8.5-9.9-5.8-3.3-14-2.7-19.2 1.5-2.1 1.6-4.6 4.4-5.6 6.2zm-119.2 0h17.6l-1.9-3.1c-1-1.8-3.5-4.6-5.6-6.2-5.2-4.2-13.4-4.8-19.2-1.5-3.6 2.1-8.5 7.8-8.5 9.9 0 0.5 7.9 0.9 17.6 0.9zm82.8-96.2c7.3-1.4 16.8-6 21.1-10.4l3.9-3.9-19.7-0.3c-10.8-0.1-28.6-0.1-39.4 0l-19.7 0.3 3.9 3.9c4.6 4.6 13.7 9 22 10.5 6.9 1.3 21 1.3 27.9-0.1z"/>
	</g>
</svg>