<svg xmlns="http://www.w3.org/2000/svg" width="28" height="28" viewBox="0 0 28 28">
    <path data-name="사각형 822" style="fill:none" d="M0 0h28v28H0z"/>
    <path data-name="패스 38166" d="m6.716 6.125-5.152.035a.952.952 0 0 0-1 .729v-.008a.952.952 0 0 0 .378 1.18l4.148 3.088-1.482 4.938a.952.952 0 0 0 .4 1.172h-.007a.952.952 0 0 0 1.238-.007l4.183-3.042 4.2 3.022a.952.952 0 0 0 1.238 0h-.007a.952.952 0 0 0 .393-1.174l-1.53-4.938-.006.014 4.109-3.14a.952.952 0 0 0 .361-1.184v.008a.952.952 0 0 0-1.007-.718l-5.167.025-1.645-4.9a.952.952 0 0 0-1-.724h.008a.952.952 0 0 0-1 .724l-1.645 4.9" transform="translate(4.561 5.006)" style="fill:#258fff"/>
</svg>
