<svg xmlns="http://www.w3.org/2000/svg" width="21" height="21" viewBox="0 0 21 21">
    <path data-name="Icon awesome-car-alt" d="m13.422 9.038-.344-.86-.61-1.525A3.41 3.41 0 0 0 9.286 4.5H5.4a3.411 3.411 0 0 0-3.181 2.154l-.61 1.525-.344.86A1.954 1.954 0 0 0 0 10.864v1.469a1.942 1.942 0 0 0 .49 1.283v1.654a.979.979 0 0 0 .979.979h.979a.979.979 0 0 0 .979-.979v-.979h7.833v.979a.979.979 0 0 0 .979.979h.979a.979.979 0 0 0 .979-.979v-1.654a1.941 1.941 0 0 0 .49-1.283v-1.469a1.954 1.954 0 0 0-1.265-1.826zM4.037 7.381A1.469 1.469 0 0 1 5.4 6.458h3.886a1.469 1.469 0 0 1 1.364.923l.61 1.525H3.427l.61-1.525zm-1.589 4.946a.976.976 0 1 1 0-1.952 1.884 1.884 0 0 1 1.469 1.464c-.001.585-.882.488-1.469.488zm9.791 0c-.587 0-1.469.1-1.469-.488a1.884 1.884 0 0 1 1.469-1.464.976.976 0 1 1 0 1.952z" transform="translate(3 .5)" style="fill:#c7c7c7"/>
    <path data-name="사각형 5548" style="fill:none" d="M0 0h21v21H0z"/>
</svg>
