<svg xmlns="http://www.w3.org/2000/svg" width="16" height="16" viewBox="0 0 16 16">
    <g transform="translate(640.7 1471.452)">
        <circle data-name="타원 86" cx="8" cy="8" r="8" transform="translate(-640.7 -1471.452)" style="fill:#c7c7c7"/>
        <path data-name="패스 2459" d="m-605.6-1419.231-2.3-2.29 2.28-2.275.26-.262-.26-.262-.333-.337-.289-.3-.289.3-2.252 2.247-2.217-2.211-.289-.3-.289.3-.333.337-.26.262.26.262 2.245 2.24-2.268 2.255-.26.262.26.262.332.336.015.015.016.014.305.248.257-.283 2.226-2.22 2.26 2.255.257.283.305-.248.016-.014.014-.015.332-.336.26-.262z" transform="translate(-23.929 -41.929)" style="fill:#f8fafb"/>
    </g>
</svg>
