<svg xmlns="http://www.w3.org/2000/svg" width="18" height="18" viewBox="0 0 18 18">
    <path data-name="사각형 6055" style="fill:none" d="M0 0h18v18H0z"/>
    <g data-name="그룹 17276">
        <path data-name="패스 38170" d="M10.421 1.8 8.761.143a.489.489 0 0 0-.691 0L.86 7.353a.152.152 0 0 0-.071.093L.005 10.37a.155.155 0 0 0 .189.189l2.924-.783a.152.152 0 0 0 .093-.071l7.21-7.21a.489.489 0 0 0 0-.695z" transform="rotate(5.13 -25.062 48.394)" style="stroke:#1a1311;stroke-linecap:round;stroke-linejoin:round;fill:none"/>
        <path data-name="패스 38172" d="M12.963 69.808H.715a.223.223 0 0 1 0-.446h12.248a.223.223 0 0 1 0 .446z" transform="translate(2.161 -54.181)" style="stroke-width:.6px;stroke:#1a1311;stroke-linecap:round;stroke-linejoin:round"/>
    </g>
</svg>
