<svg xmlns="http://www.w3.org/2000/svg" width="48" height="48" viewBox="0 0 48 48">
    <g data-name="타원 318" style="stroke:#258fff;fill:#fff">
        <circle cx="24" cy="24" r="24" style="stroke:none"/>
        <circle cx="24" cy="24" r="23.5" style="fill:none"/>
    </g>
    <g data-name="그룹 14159">
        <g data-name="그룹 14158">
            <path data-name="패스 5626" d="M10.658 6.536a.329.329 0 0 0-.345.311v5.3a.347.347 0 0 0 .691 0v-5.3a.329.329 0 0 0-.346-.311z" transform="translate(10.249 12.058)" style="fill:#258fff;stroke-width:.5px;stroke:#258fff"/>
        </g>
    </g>
    <g data-name="그룹 14161">
        <g data-name="그룹 14160">
            <path data-name="패스 5627" d="M23.783 6.508a.329.329 0 0 0-.345.311v5.322a.347.347 0 0 0 .691 0V6.819a.329.329 0 0 0-.346-.311z" transform="translate(6.747 12.066)" style="fill:#258fff;stroke-width:.5px;stroke:#258fff"/>
        </g>
    </g>
    <path data-name="합치기 22" d="M.063 6.442a.267.267 0 0 1 .083-.41l5.866-3.517a.4.4 0 0 1 .405 0l5.872 3.522a.267.267 0 0 1 .083.41.37.37 0 0 1-.283.124.393.393 0 0 1-.2-.054L6.217 3.11.545 6.512a.4.4 0 0 1-.2.054.368.368 0 0 1-.282-.124zM11.889 4.13 6.217.665.545 4.13a.388.388 0 0 1-.2.054.364.364 0 0 1-.283-.126.275.275 0 0 1 .083-.417L6.008.06a.372.372 0 0 1 .13-.053H6.329l.024.008h.022l.018.025h.005l.015.009 5.872 3.587a.275.275 0 0 1 .083.417.366.366 0 0 1-.283.127.386.386 0 0 1-.196-.05z" transform="translate(19.458 13.001)" style="fill:#258fff;stroke-width:.5px;stroke:#258fff"/>
    <g data-name="그룹 14171">
        <g data-name="그룹 14170">
            <path data-name="패스 5632" d="M9.252 5.625c-.191 0-.345.215-.345.481v1.922c0 .266.154.481.345.481s.345-.215.345-.481V6.106c.003-.266-.154-.481-.345-.481z" transform="translate(10.624 10.996)" style="fill:#258fff;stroke-width:.5px;stroke:#258fff"/>
        </g>
    </g>
    <g data-name="그룹 14173">
        <g data-name="그룹 14172">
            <path data-name="패스 5633" d="M25.189 5.625c-.191 0-.345.215-.345.481v1.922c0 .266.154.481.345.481s.345-.215.345-.481V6.106c0-.266-.154-.481-.345-.481z" transform="translate(6.356 10.996)" style="fill:#258fff;stroke-width:.5px;stroke:#258fff"/>
        </g>
    </g>
    <g data-name="그룹 14177">
        <g data-name="그룹 14176">
            <path data-name="패스 5635" d="M20.329 14.531h-9.671a.345.345 0 1 0 0 .691h9.671a.345.345 0 0 0 0-.691z" transform="translate(10.218 9.296)" style="fill:#258fff;stroke-width:.5px;stroke:#258fff"/>
        </g>
    </g>
    <g data-name="그룹 14179">
        <g data-name="그룹 14178">
            <path data-name="패스 5636" d="M2.7 27.188a.345.345 0 1 0 .349.345.344.344 0 0 0-.349-.345z" transform="translate(12.38 6.741)" style="fill:#258fff;stroke-width:.5px;stroke:#258fff"/>
        </g>
    </g>
    <g data-name="그룹 14181">
        <g data-name="그룹 14180">
            <path data-name="패스 5637" d="M27.533 18.75a.345.345 0 1 0 0 .691 1.037 1.037 0 0 1 .518 1.934.345.345 0 0 0 .173.644.342.342 0 0 0 .173-.047 1.727 1.727 0 0 0-.864-3.222z" transform="translate(5.741 9.081)" style="fill:#258fff;stroke-width:.5px;stroke:#258fff"/>
        </g>
    </g>
    <g data-name="그룹 14183">
        <g data-name="그룹 14182">
            <path data-name="패스 5638" d="M25.443 22.431a.345.345 0 0 0-.468-.141l-9.325 5.02a.345.345 0 0 0 .327.608L25.3 22.9a.345.345 0 0 0 .143-.469z" transform="translate(8.825 8.041)" style="fill:#258fff;stroke-width:.5px;stroke:#258fff"/>
        </g>
    </g>
    <g data-name="그룹 14185">
        <g data-name="그룹 14184">
            <path data-name="패스 5639" d="m13.021 28.7-7.943-1.041a.345.345 0 0 0-.089.685l7.944 1.036a.331.331 0 0 0 .045 0 .345.345 0 0 0 .044-.688z" transform="translate(11.739 6.618)" style="fill:#258fff;stroke-width:.5px;stroke:#258fff"/>
        </g>
    </g>
    <g data-name="그룹 14187">
        <g data-name="그룹 14186">
            <path data-name="패스 5640" d="M3.8 15.938H.346a.345.345 0 0 0-.346.345v9.325a.345.345 0 0 0 .345.345H3.8a.345.345 0 0 0 .345-.345v-9.325a.345.345 0 0 0-.345-.345zm-.345 9.325H.691v-8.635h2.763z" transform="translate(13 9.701)" style="fill:#258fff;stroke-width:.5px;stroke:#258fff"/>
        </g>
    </g>
    <g data-name="그룹 14189">
        <g data-name="그룹 14188">
            <path data-name="패스 5641" d="M25.171 19.071a.345.345 0 0 0-.393-.289L18.106 19.8a.345.345 0 0 0 .051.687.339.339 0 0 0 .052 0l6.672-1.015a.345.345 0 0 0 .29-.401z" transform="translate(8.207 9.098)" style="fill:#258fff;stroke-width:.5px;stroke:#258fff"/>
        </g>
    </g>
    <g data-name="그룹 14191">
        <g data-name="그룹 14190">
            <path data-name="패스 5642" d="M16.579 18.315a.345.345 0 0 0-.117.68 1.036 1.036 0 0 1-.179 2.057.345.345 0 0 0 0 .691 1.727 1.727 0 0 0 .3-3.428z" transform="translate(8.744 9.202)" style="fill:#258fff;stroke-width:.5px;stroke:#258fff"/>
        </g>
    </g>
    <g data-name="그룹 14193">
        <g data-name="그룹 14192">
            <path data-name="패스 5643" d="m14.736 17.938-5.418-1.057a.345.345 0 1 0-.132.678l5.414 1.057a.335.335 0 0 0 .066.007.345.345 0 0 0 .066-.685z" transform="translate(10.613 9.629)" style="fill:#258fff;stroke-width:.5px;stroke:#258fff"/>
        </g>
    </g>
    <g data-name="그룹 14195">
        <g data-name="그룹 14194">
            <path data-name="패스 5644" d="M8.141 16.875H5.033a.345.345 0 1 0 0 .691h3.108a.345.345 0 1 0 0-.691z" transform="translate(11.746 9.643)" style="fill:#258fff;stroke-width:.5px;stroke:#258fff"/>
        </g>
    </g>
    <g data-name="그룹 14197">
        <g data-name="그룹 14196">
            <path data-name="패스 5645" d="m14.56 21.9-4.345-.338a.345.345 0 1 0-.053.689l4.345.338h.027a.345.345 0 0 0 .026-.69z" transform="translate(10.365 8.332)" style="fill:#258fff;stroke-width:.5px;stroke:#258fff"/>
        </g>
    </g>
    <g data-name="그룹 14199">
        <g data-name="그룹 14198">
            <path data-name="패스 5646" d="M27.448 18.75a1.7 1.7 0 0 0-.295.025.345.345 0 0 0 .058.686.337.337 0 0 0 .059-.005 1.075 1.075 0 0 1 .178-.015.345.345 0 0 0 0-.691z" transform="translate(5.825 9.12)" style="fill:#258fff;stroke-width:.5px;stroke:#258fff"/>
        </g>
    </g>
    <g data-name="그룹 14201">
        <g data-name="그룹 14200">
            <path data-name="패스 5647" d="M16.231 22.028a1.021 1.021 0 0 1-.108-.006.345.345 0 0 0-.073.687 1.729 1.729 0 0 0 .181.01.345.345 0 0 0 0-.691z" transform="translate(8.801 8.21)" style="fill:#258fff;stroke-width:.5px;stroke:#258fff"/>
        </g>
    </g>
</svg>
