<svg xmlns="http://www.w3.org/2000/svg" width="48" height="48" viewBox="0 0 48 48">
    <g data-name="타원 321" style="stroke:#c7c7c7;fill:#fff">
        <circle cx="24" cy="24" r="24" style="stroke:none"/>
        <circle cx="24" cy="24" r="23.5" style="fill:none"/>
    </g>
    <g data-name="그룹 17083">
        <g data-name="그룹 14156">
            <path data-name="패스 5604" d="M21.067 3.1h-2.834v-.733a1.467 1.467 0 1 0-2.933 0V3.1c-2.933-1.544-3.867-1.544-6.8 0v-.733a1.467 1.467 0 1 0-2.933 0V3.1H2.733A1.834 1.834 0 0 0 .9 4.934V19.6a1.834 1.834 0 0 0 1.833 1.834h7.7a.367.367 0 0 0 0-.733h-7.7a1.1 1.1 0 0 1-1.1-1.1V8.235h20.534v4.006a.367.367 0 1 0 .733 0V4.934A1.834 1.834 0 0 0 21.067 3.1zm-5.033-.733a.733.733 0 1 1 1.467 0v2.2a.733.733 0 1 1-1.467 0zm-9.733 0a.733.733 0 1 1 1.467 0v2.2a.733.733 0 1 1-1.467 0zM22.167 7.5H1.633V4.934a1.1 1.1 0 0 1 1.1-1.1h2.834v.733a1.467 1.467 0 1 0 2.933 0v-.733c2.933 1.544 3.867 1.544 6.8 0v.733a1.467 1.467 0 1 0 2.933 0v-.733h2.833a1.1 1.1 0 0 1 1.1 1.1z" transform="translate(12.1 12.1)" style="stroke-width:.5px;fill:#999;stroke:#999"/>
            <path data-name="패스 5614" d="M21.855 16.2a5.655 5.655 0 1 0 5.655 5.655 5.655 5.655 0 0 0-5.655-5.655zm0 10.439a4.785 4.785 0 1 1 4.785-4.785 4.785 4.785 0 0 1-4.785 4.785z" transform="translate(7.491 7.491)" style="stroke-width:.3px;fill:#999;stroke:#999"/>
            <path data-name="패스 5615" d="m23.551 20.139-2.843 2.843-1.293-1.292a.366.366 0 1 0-.517.517l1.551 1.551a.366.366 0 0 0 .517 0l3.1-3.1a.366.366 0 1 0-.517-.517z" transform="translate(7.862 7.398)" style="stroke-width:.5px;fill:#999;stroke:#999"/>
            <path data-name="사각형 11730" transform="translate(20.8 13.15)" style="fill:#fff" d="M0 0h6.4v5H0z"/>
            <path data-name="사각형 11731" transform="translate(20.5 15.2)" style="stroke-width:.4px;fill:#999;stroke:#999" d="M0 0h7v.7H0z"/>
        </g>
        <path data-name="사각형 11716" transform="translate(12 12)" style="fill:none" d="M0 0h24v24H0z"/>
    </g>
</svg>
