<svg xmlns="http://www.w3.org/2000/svg" width="20" height="20" viewBox="0 0 20 20">
    <g data-name="그룹 17099">
        <path data-name="패스 38160" d="M12.155 27.071v-1.524A2.95 2.95 0 0 0 9.313 22.5H4.341A2.95 2.95 0 0 0 1.5 25.547v1.524" transform="translate(5.001 -11.458)" style="stroke-linecap:round;stroke-linejoin:round;stroke:#222;stroke-width:1.2px;fill:none"/>
        <path data-name="패스 38161" d="M12.5 7.377A2.877 2.877 0 1 1 9.627 4.5 2.877 2.877 0 0 1 12.5 7.377z" transform="translate(2.102 -1.367)" style="stroke-linecap:round;stroke-linejoin:round;stroke:#222;stroke-width:1.2px;fill:none"/>
        <path data-name="패스 38162" d="M13.786 8.018A3.518 3.518 0 1 1 10.268 4.5a3.518 3.518 0 0 1 3.518 3.518z" transform="translate(-1.561 -1.9)" style="stroke:#f2f2f2;fill:#f2f2f2;stroke-linecap:round;stroke-linejoin:round"/>
        <path data-name="패스 38163" d="M14.561 29.16v-2.22c0-2.452-1.559-4.44-3.483-4.44H4.983c-1.924 0-3.483 1.988-3.483 4.44v2.22" transform="translate(.501 -12.642)" style="fill:#f2f2f2"/>
        <path data-name="패스 38158" d="M12.155 27.071v-1.524A2.95 2.95 0 0 0 9.313 22.5H4.341A2.95 2.95 0 0 0 1.5 25.547v1.524" transform="translate(1.141 -11.458)" style="fill:#f2f2f2;stroke-linecap:round;stroke-linejoin:round;stroke:#222;stroke-width:1.2px"/>
        <path data-name="패스 38159" d="M12.5 7.377A2.877 2.877 0 1 1 9.627 4.5 2.877 2.877 0 0 1 12.5 7.377z" transform="translate(-1.773 -1.367)" style="stroke-linecap:round;stroke-linejoin:round;stroke:#222;stroke-width:1.2px;fill:none"/>
    </g>
    <path data-name="사각형 11715" style="fill:none" d="M0 0h20v20H0z"/>
</svg>
