<svg xmlns="http://www.w3.org/2000/svg" width="22" height="22" viewBox="0 0 22 22">
    <path data-name="Icon material-people" d="M14.299 10.32a2.66 2.66 0 1 0-2.66-2.66 2.649 2.649 0 0 0 2.66 2.66zm-7.094 0a2.66 2.66 0 1 0-2.66-2.66 2.649 2.649 0 0 0 2.661 2.66zm0 1.773c-2.066 0-6.207 1.037-6.207 3.1v2.217h12.415V15.2c0-2.069-4.141-3.106-6.207-3.106zm7.094 0c-.257 0-.55.018-.86.044a3.742 3.742 0 0 1 1.748 3.063v2.217h5.32V15.2c0-2.069-4.141-3.106-6.208-3.106z"/>
    <path data-name="사각형 11471" style="fill:none" d="M0 0h22v22H0z"/>
</svg>
