<svg xmlns="http://www.w3.org/2000/svg" width="20" height="20" viewBox="0 0 20 20">
    <path data-name="사각형 6534" style="fill:none" d="M0 0h20v20H0z"/>
    <path data-name="패스 38140" d="M16.324 10.576 15.2 9.925a1.232 1.232 0 0 1-.611-1.073v-.007q0-.138-.006-.275a1.214 1.214 0 0 1 .611-1.1l1.037-.6a.585.585 0 0 0 .214-.8l-1.688-2.917a.585.585 0 0 0-.8-.214l-1.139.661a1.221 1.221 0 0 1-1.232-.006l-.134-.077a1.22 1.22 0 0 1-.625-1.066V1.085A.585.585 0 0 0 10.242.5H6.875a.585.585 0 0 0-.585.585v1.283a1.214 1.214 0 0 1-.642 1.076q-.121.064-.239.133a1.216 1.216 0 0 1-1.224.01l-1.123-.648a.585.585 0 0 0-.8.214L.579 6.07a.585.585 0 0 0 .214.8l.981.567a1.227 1.227 0 0 1 .618 1.116q-.007.145-.007.293v.158a1.232 1.232 0 0 1-.61 1.1l-.984.568a.585.585 0 0 0-.214.8l1.686 2.918a.585.585 0 0 0 .8.214l.99-.572a1.222 1.222 0 0 1 1.25.016q.164.1.335.191a1.223 1.223 0 0 1 .652 1.081v1.088a.585.585 0 0 0 .585.585h3.368a.585.585 0 0 0 .585-.585v-1.167a1.219 1.219 0 0 1 .623-1.065q.174-.1.341-.2a1.225 1.225 0 0 1 1.278-.034l.986.569a.585.585 0 0 0 .8-.214l1.684-2.916a.585.585 0 0 0-.216-.805zm-7.839 1.2a2.928 2.928 0 1 1 2.928-2.928 2.928 2.928 0 0 1-2.928 2.925z" transform="translate(1.5 1.2)" style="stroke:#000;stroke-miterlimit:10;stroke-width:1.5px;fill:none"/>
</svg>
