<svg xmlns="http://www.w3.org/2000/svg" width="24" height="24" viewBox="0 0 24 24">
    <path style="fill:none" d="M0 0h24v24H0z"/>
    <path data-name="패스 5301" d="M4.5 9h16.143" transform="translate(-.501 -2.413)" style="stroke:#c7c7c7;stroke-linecap:round;stroke-linejoin:round;stroke-width:1.5px;fill:none"/>
    <path data-name="패스 5302" d="M20.056 6.587v12.556a1.794 1.794 0 0 1-1.794 1.794H9.294A1.794 1.794 0 0 1 7.5 19.143V6.587m2.69 0V4.794A1.794 1.794 0 0 1 11.984 3h3.587a1.794 1.794 0 0 1 1.794 1.794v1.793" transform="translate(-1.707)" style="stroke:#c7c7c7;stroke-linecap:round;stroke-linejoin:round;stroke-width:1.5px;fill:none"/>
    <path data-name="패스 5303" d="M15 16.5v5.381" transform="translate(-4.723 -5.429)" style="stroke:#c7c7c7;stroke-linecap:round;stroke-linejoin:round;stroke-width:1.5px;fill:none"/>
    <path data-name="패스 5304" d="M21 16.5v5.381" transform="translate(-7.136 -5.429)" style="stroke:#c7c7c7;stroke-linecap:round;stroke-linejoin:round;stroke-width:1.5px;fill:none"/>
</svg>
