<?xml version="1.0" encoding="UTF-8"?><svg id="_레이어_2" xmlns="http://www.w3.org/2000/svg" xmlns:xlink="http://www.w3.org/1999/xlink" viewBox="0 0 237.75 37.03"><defs><style>.cls-1{fill:url(#_무제_그라디언트_638-2);}.cls-2{fill:url(#_무제_그라디언트_638-8);}.cls-3{fill:url(#_무제_그라디언트_638);}.cls-4{fill:url(#_무제_그라디언트_638-3);}.cls-5{fill:url(#_무제_그라디언트_638-6);}.cls-6,.cls-7{fill:#009fe8;}.cls-8{fill:url(#_무제_그라디언트_638-5);}.cls-9{fill:url(#_무제_그라디언트_638-7);}.cls-7{font-family:NanumGothicBold, NanumGothic;font-size:12px;}.cls-10{fill:url(#_무제_그라디언트_638-9);}.cls-11{fill:url(#_무제_그라디언트_638-4);}</style><linearGradient id="_무제_그라디언트_638" x1="144.3" y1="18.51" x2="-2.39" y2="18.51" gradientUnits="userSpaceOnUse"><stop offset="0" stop-color="#0cf"/><stop offset="1" stop-color="#3023ee"/></linearGradient><linearGradient id="_무제_그라디언트_638-2" x1="136.31" y1="21.81" x2="-22.09" y2="21.81" xlink:href="#_무제_그라디언트_638"/><linearGradient id="_무제_그라디언트_638-3" x1="216.35" y1="8.24" x2="-55.88" y2="8.24" xlink:href="#_무제_그라디언트_638"/><linearGradient id="_무제_그라디언트_638-4" x1="144.3" y1="10.57" x2="-2.39" y2="10.57" xlink:href="#_무제_그라디언트_638"/><linearGradient id="_무제_그라디언트_638-5" x1="144.3" y1="27.53" x2="-2.39" y2="27.53" xlink:href="#_무제_그라디언트_638"/><linearGradient id="_무제_그라디언트_638-6" x1="151.73" y1="21.81" x2="-6.66" y2="21.81" xlink:href="#_무제_그라디언트_638"/><linearGradient id="_무제_그라디언트_638-7" x1="144.12" y1="18.46" x2="-2.57" y2="18.46" xlink:href="#_무제_그라디언트_638"/><linearGradient id="_무제_그라디언트_638-8" x1="144.3" y1="25.49" x2="-2.39" y2="25.49" xlink:href="#_무제_그라디언트_638"/><linearGradient id="_무제_그라디언트_638-9" x1="144.3" y1="18.31" x2="-2.39" y2="18.31" xlink:href="#_무제_그라디언트_638"/></defs><g id="_레이어_1-2"><g><path class="cls-3" d="M26.3,28.7c-2.27,2-5.19,3.1-8.41,3.1-3.5,0-6.69-1.52-9-3.92-2.3-2.41-3.77-5.65-3.77-9.31s1.47-7.01,3.77-9.41c2.3-2.41,5.49-3.92,9-3.92,3.25,0,6.17,1.03,8.4,3.04,.46-.62,.96-1.21,1.51-1.78,.66-.67,1.37-1.27,2.12-1.82C26.81,1.7,22.64,0,17.89,0S8.42,2.14,5.23,5.44C2.09,8.79,0,13.39,0,18.57s2.09,9.67,5.23,13.02c3.19,3.35,7.69,5.44,12.66,5.44s8.9-1.75,12.03-4.73c-.76-.55-1.47-1.16-2.12-1.84-.54-.56-1.04-1.15-1.49-1.76Z"/><path class="cls-1" d="M37.25,24.22c-1.65-1.65-2.56-3.85-2.56-6.18,0-.69,.09-1.41,.28-2.14l.06-.24-3.58-3.12-.21,.52c-.66,1.6-.99,3.28-.99,4.98,0,3.46,1.36,6.77,3.83,9.32,1.77,1.82,4.03,3.07,6.53,3.61l.49,.1v-4.56l-.28-.09c-1.34-.43-2.57-1.19-3.56-2.2Z"/><path class="cls-4" d="M49.35,11.66l3.35-2.92-.32-.3c-2.48-2.34-5.69-3.63-9.02-3.63s-6.53,1.29-8.99,3.63l-.32,.3,3.37,2.94,.26-.23c1.59-1.41,3.6-2.19,5.67-2.19s4.11,.77,5.72,2.18l.26,.23Z"/><path class="cls-11" d="M111.41,5.4v3.39h13.59l-5.01,6.94c1.45-.08,2.88-.14,4.3-.18l5.58-7.79-1.24-2.36h-17.22Z"/><g><path class="cls-8" d="M101.82,25.21l2.28,5.99h3.92l-2.9-7.33c-1.17,.44-2.27,.89-3.3,1.34Z"/><path class="cls-5" d="M55.53,13.06l-.21-.52-3.58,3.12,.06,.24c.18,.73,.27,1.44,.27,2.14,0,2.32-.9,4.52-2.53,6.18-1.01,1.01-2.25,1.76-3.6,2.19l-.28,.09v4.57l.49-.11c2.48-.54,4.74-1.78,6.53-3.61,2.47-2.55,3.83-5.86,3.83-9.32,0-1.7-.33-3.38-.99-4.98Z"/><polygon class="cls-9" points="77.56 23.67 63.54 5.76 60.33 5.72 60.33 31.19 64.48 31.19 64.48 13.43 78.39 31.19 81.68 31.19 81.68 5.76 77.56 5.76 77.56 23.67"/><path class="cls-2" d="M121.26,19.79c-1.68,.25-3.28,.54-4.82,.85l-6.12,8.48,1.49,2.07h17.84v-3.32h-14.17l5.78-8.08Z"/><path class="cls-10" d="M129.57,17.06c-11.25,.09-28.98,1.07-37.58,6l4.51-11.77,2.78,7.28c1.1-.29,2.24-.56,3.42-.8l-4.89-12.33h-2.69l-10.21,25.76h3.96s12.49-12.24,40.72-13.86c-.02-.09-.02-.18-.03-.28Z"/></g></g><path class="cls-6" d="M149.26,15.35c-.36,.09-.75,.16-1.17,.23s-.86,.12-1.33,.15c-.46,.04-.94,.07-1.42,.09s-.97,.02-1.45,0c-.42-.02-.73-.12-.93-.3-.2-.18-.29-.46-.29-.85v-4.3c0-.35,.08-.59,.23-.73s.4-.21,.75-.21h2.25c.1,0,.16-.01,.19-.04,.03-.03,.04-.09,.04-.19v-1.98c0-.1-.01-.16-.04-.19-.03-.03-.09-.04-.19-.04h-2.8c-.22,0-.33-.1-.33-.31v-1.24c0-.12,.02-.2,.07-.24,.05-.04,.13-.07,.25-.07h4.07c.24,0,.43,.02,.59,.06,.15,.04,.27,.1,.34,.19s.13,.2,.15,.34c.03,.14,.04,.32,.04,.54v3.76c0,.46-.09,.76-.27,.92-.18,.16-.47,.24-.87,.24h-2.08c-.14,0-.21,.07-.21,.21v2.38c0,.14,.08,.21,.24,.21,.31,0,.62,0,.93-.02,.3-.01,.61-.03,.92-.06s.63-.06,.97-.11c.34-.04,.7-.1,1.09-.16,.12-.02,.19-.01,.22,.02,.03,.04,.05,.1,.07,.19l.21,1.16c.02,.12,.02,.2-.02,.25-.03,.05-.11,.08-.23,.11Zm3.09,3.71h-1.5c-.12,0-.2-.02-.25-.05-.05-.03-.07-.12-.07-.26v-7.48h-1.27c-.12,0-.21-.02-.29-.07-.07-.05-.11-.15-.11-.3v-1.24c0-.17,.04-.27,.12-.3,.08-.03,.17-.04,.27-.04h1.27V4.56c0-.22,.11-.33,.33-.33h1.5c.12,0,.2,.02,.24,.07,.04,.05,.07,.13,.07,.25v14.19c0,.13-.02,.21-.07,.25-.04,.04-.12,.06-.24,.06Zm3.32,.55h-1.63c-.12,0-.2-.02-.24-.07s-.07-.13-.07-.24V4.28c0-.12,.02-.2,.07-.24s.13-.07,.25-.07h1.59c.12,0,.2,.02,.24,.07,.04,.04,.07,.12,.07,.24v15.02c0,.12-.02,.2-.06,.24-.04,.04-.12,.07-.24,.07Zm9.45-4.59h-5.39c-.25,0-.45-.01-.61-.04-.16-.03-.28-.08-.37-.16-.09-.08-.15-.2-.18-.34-.03-.15-.05-.34-.05-.59V6.25c0-.47,.08-.76,.25-.89s.46-.2,.87-.2h5.47c.23,0,.42,.01,.56,.03,.15,.02,.26,.07,.34,.15,.08,.08,.14,.19,.17,.33,.03,.15,.05,.34,.05,.58v7.63c0,.24-.02,.43-.05,.59-.03,.15-.09,.27-.17,.35-.08,.08-.2,.14-.34,.16-.15,.03-.33,.04-.56,.04Zm-1.12-7.7c0-.14-.01-.23-.04-.27-.03-.04-.11-.06-.24-.06h-2.62c-.14,0-.23,.02-.27,.05-.04,.03-.06,.12-.06,.28v5.53c0,.15,.02,.24,.06,.28,.04,.03,.13,.05,.27,.05h2.62c.13,0,.21-.02,.24-.06,.03-.04,.04-.13,.04-.27V7.33Zm6.25,12.25h-1.63c-.12,0-.2-.02-.24-.06-.04-.04-.07-.12-.07-.25V4.28c0-.12,.02-.2,.07-.24,.04-.04,.12-.07,.24-.07h1.63c.12,0,.2,.02,.24,.07,.04,.04,.07,.12,.07,.24v14.99c0,.13-.02,.21-.07,.25-.04,.04-.13,.06-.24,.06Zm16.73-6.05h-13.96c-.15,0-.24-.03-.28-.08-.03-.05-.05-.15-.05-.28v-1.17c0-.12,.02-.2,.07-.25,.04-.05,.13-.07,.26-.07h5.35v-1.64c0-.12,.02-.2,.07-.25,.05-.05,.14-.07,.27-.07h1.59c.13,0,.22,.02,.26,.07,.04,.05,.07,.13,.07,.25v1.64h6.35c.1,0,.18,.02,.24,.07,.07,.04,.1,.13,.1,.26v1.17c0,.24-.11,.36-.34,.36Zm-11.93-4.52c-.12,0-.2-.03-.24-.08-.04-.05-.06-.15-.06-.28v-1.09c0-.12,.02-.2,.06-.25,.04-.05,.12-.07,.24-.07h2.11c.71,0,1.41,0,2.09,0s1.35-.02,1.99-.03c.65-.02,1.25-.03,1.81-.06,0-.12,0-.22,0-.31s0-.16,0-.21c0-.16-.02-.28-.07-.35-.04-.07-.17-.11-.37-.11h-7.35c-.11,0-.19-.01-.25-.04-.06-.03-.09-.11-.09-.25v-1.27c0-.12,.03-.2,.09-.23,.06-.03,.14-.05,.25-.05h8.87c.39,0,.68,.08,.86,.25,.18,.17,.28,.46,.28,.87,0,.29,0,.65-.02,1.07s-.03,.86-.06,1.32c-.03,.46-.07,.93-.11,1.39s-.11,.89-.19,1.29c-.02,.16-.07,.26-.13,.29-.07,.03-.17,.04-.33,.02l-1.46-.13c-.14-.02-.22-.07-.24-.13-.02-.07-.01-.15,0-.26,.07-.36,.12-.82,.18-1.4-.57,.02-1.19,.04-1.83,.06-.65,.02-1.3,.03-1.98,.04-.67,.01-1.36,.02-2.05,.02h-2.03Zm10.17,10.09h-9.14c-.23,0-.41-.02-.56-.06-.15-.04-.26-.1-.34-.19-.08-.09-.14-.21-.17-.36-.03-.15-.05-.34-.05-.57v-3.14c0-.23,.11-.34,.33-.34h1.59c.23,0,.34,.11,.34,.34v2.21c0,.16,.08,.24,.24,.24h7.76c.09,0,.17,.02,.24,.06s.11,.12,.11,.24v1.27c0,.15-.04,.24-.11,.26-.07,.02-.15,.03-.24,.03Zm21.61-7.16h-13.96c-.15,0-.24-.03-.28-.08-.03-.05-.05-.14-.05-.26v-1.11c0-.12,.02-.21,.07-.26,.04-.05,.13-.08,.26-.08h13.96c.1,0,.18,.02,.24,.07,.07,.05,.1,.14,.1,.27v1.11c0,.23-.11,.34-.34,.34Zm-1.76-2.64h-10.45c-.24,0-.36-.12-.36-.37v-1.11c0-.21,.12-.31,.36-.31h1.68v-1.59h-1.38c-.25,0-.37-.12-.37-.36v-1.09c0-.12,.04-.21,.11-.26,.07-.05,.16-.08,.27-.08h9.88c.23,0,.34,.11,.34,.34v1.11c0,.23-.11,.34-.34,.34h-1.4v1.59h1.68c.24,0,.36,.1,.36,.31v1.12c0,.24-.12,.36-.36,.36Zm-.08,10.22h-9.08c-.24,0-.43-.02-.58-.06-.15-.04-.26-.1-.34-.18s-.14-.19-.16-.33c-.03-.14-.04-.3-.04-.5v-2.08c0-.21,.01-.37,.04-.5,.03-.13,.08-.24,.16-.32s.19-.14,.33-.17c.14-.03,.33-.05,.57-.05h6.64c.1,0,.15-.06,.15-.18v-.36c0-.13-.05-.2-.16-.2h-7.44c-.12,0-.2-.02-.25-.07-.05-.04-.07-.13-.07-.26v-1.11c0-.21,.11-.31,.33-.31h8.66c.49,0,.8,.08,.94,.24,.14,.16,.21,.43,.21,.82v2.03c0,.22-.01,.39-.04,.53-.03,.14-.08,.24-.15,.32s-.19,.13-.34,.15-.35,.04-.59,.04h-6.59c-.11,0-.16,.05-.16,.16v.44c0,.12,.06,.18,.18,.18h7.78c.12,0,.21,.02,.26,.05,.05,.03,.08,.12,.08,.26v1.11c0,.22-.11,.33-.33,.33Zm-6.46-12.01h2.64v-1.59h-2.64v1.59Zm16.68,5.13c-.34,.08-.73,.14-1.17,.2-.44,.06-.91,.11-1.4,.15-.49,.04-.98,.06-1.47,.07-.49,.01-.96,0-1.39-.02-.46-.02-.77-.12-.95-.28-.18-.17-.27-.46-.27-.87v-2.99c0-.35,.08-.59,.23-.72,.15-.14,.4-.2,.75-.2h2.62c.1,0,.16-.01,.19-.04,.03-.03,.04-.09,.04-.19v-.88c0-.1-.01-.16-.04-.19-.03-.03-.09-.04-.19-.04h-3.17c-.22,0-.33-.1-.33-.31v-1.24c0-.12,.02-.2,.07-.24,.05-.04,.13-.06,.25-.06h4.46c.24,0,.43,.02,.58,.06s.26,.1,.33,.19c.08,.09,.13,.2,.15,.34,.03,.14,.04,.32,.04,.54v2.62c0,.46-.09,.76-.27,.93-.18,.16-.46,.24-.85,.24h-2.49c-.14,0-.21,.07-.21,.21v1.14c0,.14,.08,.21,.24,.21,.73,.02,1.41,0,2.04-.05,.63-.05,1.28-.15,1.94-.28,.12-.02,.2-.01,.24,.03,.04,.04,.08,.11,.1,.2l.16,1.09c.04,.21-.04,.33-.24,.37Zm-4.46,7.11c-.15,.04-.25,.05-.29,.03-.04-.02-.09-.08-.13-.16l-.55-1.33c-.08-.17,0-.29,.24-.36,1.42-.4,2.55-.92,3.39-1.56,.84-.64,1.36-1.47,1.55-2.49,.03-.16,.14-.24,.33-.24l1.68,.08c.17,.01,.24,.15,.21,.41-.02,.13-.05,.26-.07,.37s-.06,.24-.11,.36c.21,.4,.49,.76,.86,1.07,.36,.31,.77,.59,1.22,.82,.45,.23,.92,.43,1.4,.59,.48,.16,.95,.29,1.39,.37,.15,.03,.23,.08,.24,.15s0,.15-.03,.24l-.54,1.35c-.07,.16-.23,.21-.49,.15-.44-.1-.9-.23-1.37-.4s-.93-.37-1.38-.6c-.44-.23-.86-.5-1.26-.81-.4-.31-.74-.65-1.03-1.02-.56,.71-1.29,1.31-2.18,1.81-.89,.5-1.92,.89-3.08,1.17Zm10.64-5.76h-1.61c-.21,0-.31-.11-.31-.33v-3.81h-1.17v2.78c0,.12-.02,.2-.06,.24-.04,.04-.13,.07-.24,.07h-1.53c-.12,0-.2-.02-.25-.06-.05-.04-.07-.12-.07-.25V4.54c0-.12,.02-.2,.07-.24,.05-.04,.13-.07,.25-.07h1.53c.21,0,.31,.1,.31,.31v3.48h1.17v-3.74c0-.12,.02-.2,.07-.24,.05-.04,.13-.07,.25-.07h1.59c.12,0,.2,.02,.24,.07,.04,.04,.06,.12,.06,.24V13.65c0,.22-.1,.33-.31,.33Zm14.27-3.97h-4.08v1.19h5.84c.1,0,.18,.02,.24,.07,.07,.04,.1,.13,.1,.26v1.17c0,.23-.11,.34-.34,.34h-13.96c-.15,0-.24-.02-.28-.07-.03-.05-.05-.14-.05-.27v-1.17c0-.12,.02-.2,.07-.25,.04-.05,.13-.07,.26-.07h5.86v-1.19h-4.1c-.24,0-.36-.12-.36-.37v-1.12c0-.21,.12-.31,.36-.31h1.68v-2.13h-1.38c-.25,0-.37-.12-.37-.36v-1.12c0-.12,.03-.21,.11-.26s.16-.08,.27-.08h9.88c.23,0,.34,.11,.34,.34v1.14c0,.23-.11,.34-.34,.34h-1.4v2.13h1.68c.24,0,.36,.1,.36,.31v1.14c0,.24-.12,.36-.36,.36Zm-1.32,9.32h-7.71c-.27,0-.49-.02-.65-.05-.16-.03-.29-.09-.38-.19-.09-.09-.15-.21-.19-.37s-.05-.35-.05-.59v-2.9c0-.48,.08-.8,.24-.96,.16-.16,.47-.24,.93-.24h7.73c.27,0,.49,.02,.65,.06s.29,.1,.38,.2c.09,.09,.15,.22,.19,.37s.05,.36,.05,.59v2.9c0,.24-.02,.43-.06,.59-.04,.15-.1,.27-.2,.36s-.21,.15-.37,.18c-.15,.03-.34,.05-.57,.05Zm-1.07-3.25c0-.13-.06-.2-.18-.2h-5.29c-.13,0-.2,.07-.2,.21v1.2c0,.13,.06,.2,.2,.2h5.27c.08,0,.13,0,.15-.02,.03-.02,.04-.08,.04-.19v-1.2Zm-4.15-7.88h2.64v-2.13h-2.64v2.13Z"/><text class="cls-7" transform="translate(146.82 33.02)"><tspan x="0" y="0">remicon A to Z</tspan></text></g></svg>