<svg xmlns="http://www.w3.org/2000/svg" width="80" height="80" viewBox="0 0 80 80">
    <g transform="translate(-30 -232)">
        <circle data-name="타원 318" cx="40" cy="40" r="40" transform="translate(30 232)" style="fill:#f2f2f2"/>
        <g data-name="그룹 17084">
            <g data-name="그룹 14159">
                <g data-name="그룹 14158">
                    <path data-name="패스 5626" d="M10.828 6.536a.492.492 0 0 0-.515.464v7.919a.519.519 0 0 0 1.032 0V7a.492.492 0 0 0-.517-.464z" transform="translate(54.551 256.642)" style="fill:#222;stroke:#222;stroke-width:.5px"/>
                </g>
            </g>
            <g data-name="그룹 14161">
                <g data-name="그룹 14160">
                    <path data-name="패스 5627" d="M23.953 6.508a.492.492 0 0 0-.516.464v7.949a.519.519 0 0 0 1.032 0V6.972a.492.492 0 0 0-.516-.464z" transform="translate(55.799 256.64)" style="fill:#222;stroke:#222;stroke-width:.5px"/>
                </g>
            </g>
            <path data-name="합치기 22" d="M.094 9.623a.4.4 0 0 1 .124-.612l8.761-5.254a.6.6 0 0 1 .606-.007l8.77 5.26a.4.4 0 0 1 .124.612.553.553 0 0 1-.423.185.588.588 0 0 1-.3-.081L9.285 4.647.815 9.728a.592.592 0 0 1-.3.081.55.55 0 0 1-.421-.186zM17.757 6.17 9.285.994.815 6.17a.579.579 0 0 1-.3.081.543.543 0 0 1-.422-.188.41.41 0 0 1 .125-.623L8.973.091a.556.556 0 0 1 .2-.079h.217L9.4.01h.044l.035.012.016.006.017.007.016.008h.014l.023.013 8.77 5.358a.41.41 0 0 1 .124.622.547.547 0 0 1-.423.19.576.576 0 0 1-.279-.056z" transform="translate(63.216 254.823)" style="fill:#222;stroke:#222;stroke-width:.5px"/>
            <g data-name="그룹 14171">
                <g data-name="그룹 14170">
                    <path data-name="패스 5632" d="M9.422 5.625c-.285 0-.516.321-.516.718v2.871c0 .4.231.718.516.718s.516-.321.516-.718V6.343c0-.397-.231-.718-.516-.718z" transform="translate(54.22 254.605)" style="fill:#222;stroke:#222;stroke-width:.5px"/>
                </g>
            </g>
            <g data-name="그룹 14173">
                <g data-name="그룹 14172">
                    <path data-name="패스 5633" d="M25.36 5.625c-.285 0-.516.321-.516.718v2.871c0 .4.231.718.516.718s.516-.321.516-.718V6.343c-.001-.397-.231-.718-.516-.718z" transform="translate(55.987 254.605)" style="fill:#222;stroke:#222;stroke-width:.5px"/>
                </g>
            </g>
            <g data-name="그룹 14177">
                <g data-name="그룹 14176">
                    <path data-name="패스 5635" d="M25.272 14.531H10.828a.516.516 0 1 0 0 1.032h14.444a.516.516 0 1 0 0-1.032z" transform="translate(54.506 256.463)" style="fill:#222;stroke:#222;stroke-width:.5px"/>
                </g>
            </g>
            <g data-name="그룹 14179">
                <g data-name="그룹 14178">
                    <path data-name="패스 5636" d="M2.874 27.188h-.006a.519.519 0 1 0 .006 0z" transform="translate(53.807 258.893)" style="fill:#222;stroke:#222;stroke-width:.5px"/>
                </g>
            </g>
            <g data-name="그룹 14181">
                <g data-name="그룹 14180">
                    <path data-name="패스 5637" d="M27.7 18.75a.516.516 0 0 0 0 1.032 1.548 1.548 0 0 1 .774 2.889.516.516 0 0 0 .259.962.51.51 0 0 0 .258-.07A2.58 2.58 0 0 0 27.7 18.75z" transform="translate(56.147 258.224)" style="fill:#222;stroke:#222;stroke-width:.5px"/>
                </g>
            </g>
            <g data-name="그룹 14183">
                <g data-name="그룹 14182">
                    <path data-name="패스 5638" d="M30.366 22.521a.516.516 0 0 0-.7-.21l-13.928 7.5a.516.516 0 0 0 .489.908l13.928-7.5a.516.516 0 0 0 .211-.698z" transform="translate(54.97 258.397)" style="fill:#222;stroke:#222;stroke-width:.5px"/>
                </g>
            </g>
            <g data-name="그룹 14185">
                <g data-name="그룹 14184">
                    <path data-name="패스 5639" d="M17.134 29.208 5.27 27.661a.516.516 0 0 0-.133 1.022L17 30.231a.494.494 0 0 0 .067 0 .516.516 0 0 0 .066-1.027z" transform="translate(54.002 258.94)" style="fill:#222;stroke:#222;stroke-width:.5px"/>
                </g>
            </g>
            <g data-name="그룹 14187">
                <g data-name="그룹 14186">
                    <path data-name="패스 5640" d="M5.674 15.938H.516a.515.515 0 0 0-.516.515v13.928a.515.515 0 0 0 .516.516h5.158a.515.515 0 0 0 .516-.516V16.453a.515.515 0 0 0-.516-.515zm-.515 13.927H1.032v-12.9h4.127z" transform="translate(53.571 257.763)" style="fill:#222;stroke:#222;stroke-width:.5px"/>
                </g>
            </g>
            <g data-name="그룹 14189">
                <g data-name="그룹 14188">
                    <path data-name="패스 5641" d="M28.8 19.216a.516.516 0 0 0-.588-.432L18.251 20.3a.516.516 0 0 0 .077 1.026.507.507 0 0 0 .078-.006l9.965-1.52a.516.516 0 0 0 .429-.584z" transform="translate(55.205 258.264)" style="fill:#222;stroke:#222;stroke-width:.5px"/>
                </g>
            </g>
            <g data-name="그룹 14191">
                <g data-name="그룹 14190">
                    <path data-name="패스 5642" d="M16.9 18.317a.516.516 0 0 0-.175 1.016 1.548 1.548 0 0 1-.267 3.072.516.516 0 1 0 0 1.032 2.579 2.579 0 0 0 .442-5.12z" transform="translate(55.08 258.187)" style="fill:#222;stroke:#222;stroke-width:.5px"/>
                </g>
            </g>
            <g data-name="그룹 14193">
                <g data-name="그룹 14192">
                    <path data-name="패스 5643" d="m17.613 18.463-8.092-1.579a.516.516 0 1 0-.2 1.013l8.093 1.578a.5.5 0 0 0 .1.01.516.516 0 0 0 .1-1.022z" transform="translate(54.402 258.118)" style="fill:#222;stroke:#222;stroke-width:.5px"/>
                </g>
            </g>
            <g data-name="그룹 14195">
                <g data-name="그룹 14194">
                    <path data-name="패스 5644" d="M9.846 16.875H5.2a.516.516 0 1 0 0 1.032h4.646a.516.516 0 1 0 0-1.032z" transform="translate(54.012 258.138)" style="fill:#222;stroke:#222;stroke-width:.5px"/>
                </g>
            </g>
            <g data-name="그룹 14197">
                <g data-name="그룹 14196">
                    <path data-name="패스 5645" d="m16.888 22.069-6.489-.5a.516.516 0 0 0-.079 1.029l6.489.5h.04a.516.516 0 0 0 .039-1.03z" transform="translate(54.494 258.493)" style="fill:#222;stroke:#222;stroke-width:.5px"/>
                </g>
            </g>
            <g data-name="그룹 14199">
                <g data-name="그룹 14198">
                    <path data-name="패스 5646" d="M27.735 18.75a2.546 2.546 0 0 0-.44.038.516.516 0 0 0 .087 1.024.5.5 0 0 0 .088-.008 1.605 1.605 0 0 1 .266-.022.516.516 0 0 0 0-1.032z" transform="translate(56.115 258.283)" style="fill:#222;stroke:#222;stroke-width:.5px"/>
                </g>
            </g>
            <g data-name="그룹 14201">
                <g data-name="그룹 14200">
                    <path data-name="패스 5647" d="M16.473 22.032a1.526 1.526 0 0 1-.161-.009.516.516 0 0 0-.112 1.027 2.582 2.582 0 0 0 .27.014.516.516 0 0 0 0-1.032z" transform="translate(55.068 258.536)" style="fill:#222;stroke:#222;stroke-width:.5px"/>
                </g>
            </g>
            <path data-name="사각형 11717" transform="translate(50 252)" style="fill:none" d="M0 0h40v40H0z"/>
        </g>
    </g>
</svg>
