<svg xmlns="http://www.w3.org/2000/svg" width="24" height="24" viewBox="0 0 24 24">
    <path data-name="사각형 6534" style="fill:none" d="M0 0h24v24H0z"/>
    <path data-name="패스 38140" d="m15.245 9.889-1.051-.607a1.148 1.148 0 0 1-.57-1v-.006q0-.129-.006-.257a1.131 1.131 0 0 1 .569-1.026l.966-.558a.546.546 0 0 0 .2-.745l-1.568-2.718a.546.546 0 0 0-.745-.2l-1.062.613a1.137 1.137 0 0 1-1.148-.005l-.125-.072a1.137 1.137 0 0 1-.582-.993v-1.27A.545.545 0 0 0 9.578.5H6.44a.545.545 0 0 0-.545.545v1.2a1.131 1.131 0 0 1-.6 1q-.113.059-.222.124a1.133 1.133 0 0 1-1.14.01l-1.046-.6a.546.546 0 0 0-.745.2L.573 5.69a.546.546 0 0 0 .2.745l.914.528A1.144 1.144 0 0 1 2.263 8q-.006.136-.007.273v.147a1.148 1.148 0 0 1-.566 1.031l-.917.529a.545.545 0 0 0-.2.745l1.569 2.718a.546.546 0 0 0 .745.2l.923-.533a1.139 1.139 0 0 1 1.165.015q.153.094.313.178a1.139 1.139 0 0 1 .607 1.007v1.014a.545.545 0 0 0 .545.545h3.138a.545.545 0 0 0 .545-.545v-1.088a1.136 1.136 0 0 1 .581-.993q.162-.09.317-.191a1.141 1.141 0 0 1 1.191-.032l.918.53a.545.545 0 0 0 .745-.2l1.569-2.718a.546.546 0 0 0-.199-.743zM7.941 11a2.728 2.728 0 1 1 2.728-2.728A2.728 2.728 0 0 1 7.941 11z" transform="translate(4.05 3.762)" style="stroke:#000;stroke-miterlimit:10;stroke-width:1.3px;fill:none"/>
</svg>
