<svg xmlns="http://www.w3.org/2000/svg" width="24" height="24" viewBox="0 0 24 24">
    <path data-name="사각형 4608" style="fill:none" d="M0 0h24v24H0z"/>
    <g data-name="그룹 311" transform="translate(3.922 6.575)">
        <circle data-name="타원 45" cx="2.566" cy="2.566" r="2.566" transform="translate(2.586 .175)" style="stroke:#000;stroke-width:1.2px;fill:none"/>
        <circle data-name="타원 46" cx="2.11" cy="2.11" r="2.11" transform="translate(9.967 -1)" style="stroke:#000;stroke-width:1.2px;fill:none"/>
        <path data-name="패스 133" d="M280.988 470.631a5.1 5.1 0 0 1 2.6 4.441c0 .031-.142.251-.671.51" transform="translate(-273.398 -464.506)" style="stroke-linecap:round;stroke-linejoin:round;stroke:#000;stroke-width:1.2px;fill:none"/>
        <path data-name="패스 134" d="M279.715 470.521a5.091 5.091 0 0 0-7.59 4.441c0 .038.207.365 1.11.7a13.822 13.822 0 0 0 7.974 0 4.47 4.47 0 0 0 .439-.188" transform="translate(-272.125 -464.396)" style="stroke-linecap:round;stroke-linejoin:round;stroke:#000;stroke-width:1.2px;fill:none"/>
        <path data-name="패스 135" d="M283.49 471.453c1.384-2.005 2.532-2.437 3.63-2.437a4.207 4.207 0 0 1 4.2 4.2c0 .032-.17.3-.915.575a10.078 10.078 0 0 1-3.287.484h-.24l-1.416-.1-.288-.026" transform="translate(-275.165 -465.487)" style="stroke-linecap:round;stroke-linejoin:round;stroke:#000;stroke-width:1.2px;fill:none"/>
    </g>
</svg>
