<?xml version="1.0" standalone="no"?>
<!DOCTYPE svg PUBLIC "-//W3C//DTD SVG 20010904//EN"
 "http://www.w3.org/TR/2001/REC-SVG-20010904/DTD/svg10.dtd">
<svg version="1.0" xmlns="http://www.w3.org/2000/svg"
 width="512.000000pt" height="512.000000pt" viewBox="0 0 512.000000 512.000000"
 preserveAspectRatio="xMidYMid meet">

<g transform="translate(0.000000,512.000000) scale(0.100000,-0.100000)"
fill="#000000" stroke="none">
<path d="M2420 5105 c-452 -96 -690 -586 -485 -1000 91 -185 275 -328 478
-372 99 -21 269 -13 357 17 225 76 384 235 457 455 23 69 27 97 27 210 1 118
-2 138 -28 219 -64 194 -225 365 -416 440 -112 44 -269 56 -390 31z m303 -255
c31 -12 82 -40 112 -63 278 -212 234 -634 -82 -785 -76 -36 -81 -37 -193 -37
-112 0 -117 1 -193 37 -204 98 -308 317 -252 533 42 159 173 290 331 330 80
20 202 13 277 -15z"/>
<path d="M2415 3246 c-251 -58 -442 -231 -523 -473 -23 -69 -26 -94 -26 -213
0 -119 3 -144 26 -213 72 -216 239 -383 455 -455 69 -23 94 -26 213 -26 119 0
144 3 213 26 501 168 651 796 278 1166 -132 130 -277 191 -466 198 -71 2 -131
-1 -170 -10z m307 -255 c133 -51 237 -165 279 -303 56 -184 -21 -400 -180
-505 -91 -62 -148 -78 -266 -78 -80 1 -111 5 -157 23 -189 75 -307 258 -296
455 12 195 129 349 316 414 87 31 216 28 304 -6z"/>
<path d="M2397 1384 c-233 -56 -427 -237 -504 -469 -23 -69 -27 -97 -27 -210
-1 -118 2 -138 28 -219 111 -338 458 -541 804 -470 345 71 581 378 559 728
-19 313 -245 578 -546 642 -83 17 -238 17 -314 -2z m357 -267 c203 -96 307
-316 251 -532 -64 -243 -318 -393 -560 -330 -343 90 -461 521 -211 771 54 53
146 107 214 124 20 5 80 8 134 6 86 -3 104 -6 172 -39z"/>
</g>
</svg>
