<svg xmlns="http://www.w3.org/2000/svg" width="45.082" height="35.114" viewBox="0 0 45.082 35.114">
    <defs>
        <filter id="mal7tkelpa" x="0" y="0" width="45.082" height="35.114" filterUnits="userSpaceOnUse">
            <feOffset dy="3"/>
            <feGaussianBlur stdDeviation="3" result="blur"/>
            <feFlood flood-opacity=".161"/>
            <feComposite operator="in" in2="blur"/>
            <feComposite in="SourceGraphic"/>
        </filter>
    </defs>
    <g data-name="그룹 13958">
        <g data-name="그룹 13956">
            <path data-name="사각형 6301" style="fill:#fff" d="M0 0h30v30H0z" transform="translate(7.42 1.981)"/>
        </g>
        <g data-name="032-snowing">
            <path data-name="패스 5502" d="M107.222 345.155a.554.554 0 0 1-.554-.554v-2.215a.554.554 0 1 1 1.108 0v2.214a.554.554 0 0 1-.554.555zm0 0" transform="translate(-91.88 -317.86)" style="fill:#7bbbff"/>
            <path data-name="패스 5503" d="M90.663 354.706a.547.547 0 0 1-.277-.074l-1.919-1.108a.554.554 0 1 1 .554-.959l1.918 1.108a.554.554 0 0 1-.277 1.034zm0 0" transform="translate(-74.362 -327.966)" style="fill:#7bbbff"/>
            <path data-name="패스 5504" d="M88.726 354.693a.554.554 0 0 1-.278-1.034l1.918-1.108a.554.554 0 1 1 .554.959L89 354.618a.541.541 0 0 1-.274.075zm0 0" transform="translate(-74.343 -327.952)" style="fill:#7bbbff"/>
            <path data-name="패스 5505" d="M192.554 345.155a.554.554 0 0 1-.554-.555v-2.215a.554.554 0 1 1 1.108 0v2.215a.554.554 0 0 1-.554.555zm0 0" transform="translate(-172.782 -317.86)" style="fill:#7bbbff"/>
            <path data-name="패스 5506" d="M176 354.706a.547.547 0 0 1-.277-.074l-1.918-1.108a.554.554 0 1 1 .554-.959l1.919 1.108a.554.554 0 0 1-.277 1.034zm0 0" transform="translate(-155.266 -327.966)" style="fill:#7bbbff"/>
            <path data-name="패스 5507" d="M174.058 354.693a.554.554 0 0 1-.278-1.034l1.918-1.108a.554.554 0 1 1 .554.959l-1.918 1.108a.541.541 0 0 1-.276.075zm0 0" transform="translate(-155.245 -327.952)" style="fill:#7bbbff"/>
            <path data-name="패스 5508" d="M277.886 345.155a.554.554 0 0 1-.554-.554v-2.215a.554.554 0 1 1 1.108 0v2.214a.554.554 0 0 1-.554.555zm0 0" transform="translate(-253.683 -317.86)" style="fill:#7bbbff"/>
            <path data-name="패스 5509" d="M261.331 354.706a.548.548 0 0 1-.277-.074l-1.918-1.108a.554.554 0 1 1 .554-.959l1.918 1.108a.554.554 0 0 1-.277 1.034zm0 0" transform="translate(-236.169 -327.966)" style="fill:#7bbbff"/>
            <path data-name="패스 5510" d="M259.392 354.693a.554.554 0 0 1-.278-1.034l1.918-1.108a.554.554 0 1 1 .554.959l-1.918 1.108a.54.54 0 0 1-.276.075zm0 0" transform="translate(-236.149 -327.952)" style="fill:#7bbbff"/>
            <path data-name="패스 5511" d="M149.886 281.155a.554.554 0 0 1-.554-.554v-2.215a.554.554 0 1 1 1.108 0v2.214a.554.554 0 0 1-.554.555zm0 0" transform="translate(-132.329 -257.183)" style="fill:#7bbbff"/>
            <path data-name="패스 5512" d="M133.331 290.7a.548.548 0 0 1-.277-.074l-1.918-1.108a.554.554 0 1 1 .554-.959l1.918 1.108a.554.554 0 0 1-.277 1.034zm0 0" transform="translate(-114.815 -267.279)" style="fill:#7bbbff"/>
            <path data-name="패스 5513" d="M131.392 290.684a.554.554 0 0 1-.278-1.034l1.918-1.108a.554.554 0 1 1 .554.959l-1.918 1.108a.541.541 0 0 1-.276.075zm0 0" transform="translate(-114.794 -267.266)" style="fill:#7bbbff"/>
            <path data-name="패스 5514" d="M235.222 281.155a.554.554 0 0 1-.554-.554v-2.215a.554.554 0 1 1 1.108 0v2.214a.554.554 0 0 1-.554.555zm0 0" transform="translate(-213.234 -257.183)" style="fill:#7bbbff"/>
            <path data-name="패스 5515" d="M218.663 290.7a.547.547 0 0 1-.277-.074l-1.919-1.108a.554.554 0 0 1 .554-.959l1.918 1.108a.554.554 0 0 1-.277 1.034zm0 0" transform="translate(-195.716 -267.279)" style="fill:#7bbbff"/>
            <path data-name="패스 5516" d="M216.726 290.684a.554.554 0 0 1-.278-1.034l1.918-1.108a.554.554 0 0 1 .554.959L217 290.61a.541.541 0 0 1-.274.074zm0 0" transform="translate(-195.698 -267.266)" style="fill:#7bbbff"/>
            <path data-name="패스 5517" d="M320.554 281.155a.554.554 0 0 1-.554-.555v-2.215a.554.554 0 1 1 1.108 0v2.215a.554.554 0 0 1-.554.555zm0 0" transform="translate(-294.136 -257.183)" style="fill:#7bbbff"/>
            <path data-name="패스 5518" d="M304 290.7a.547.547 0 0 1-.277-.074l-1.918-1.108a.554.554 0 1 1 .554-.959l1.919 1.108A.554.554 0 0 1 304 290.7zm0 0" transform="translate(-276.621 -267.279)" style="fill:#7bbbff"/>
            <path data-name="패스 5519" d="M302.058 290.684a.554.554 0 0 1-.278-1.034l1.918-1.108a.554.554 0 1 1 .554.959l-1.918 1.108a.541.541 0 0 1-.276.075zm0 0" transform="translate(-276.6 -267.266)" style="fill:#7bbbff"/>
            <g style="filter:url(#mal7tkelpa)">
                <path data-name="패스 5520" d="M20.491 17.114a.554.554 0 1 1 0-1.108 4.984 4.984 0 0 0 0-9.968 4.891 4.891 0 0 0-1.546.272.557.557 0 0 1-.684-.31A7.2 7.2 0 0 0 4.494 7.9a.553.553 0 0 1-.42.468 3.87 3.87 0 0 0 .91 7.634.554.554 0 1 1 0 1.108A4.978 4.978 0 0 1 3.448 7.4a8.305 8.305 0 0 1 15.627-2.282 5.69 5.69 0 0 1 1.416-.187 6.092 6.092 0 0 1 0 12.184zm0 0" transform="translate(9.25 5.75)" style="fill:#c7c7c7;stroke:#c6c7c6;stroke-width:.5px"/>
            </g>
        </g>
    </g>
</svg>
