<svg xmlns="http://www.w3.org/2000/svg" width="20" height="20" viewBox="0 0 20 20">
    <path data-name="패스 5263" d="M8.715 0C3.91 0 0 3.258 0 7.262a6.334 6.334 0 0 0 1.359 3.892L.039 13.9a.4.4 0 0 0 .121.49.6.6 0 0 0 .385.133.646.646 0 0 0 .2-.033l3.3-1.1a9.908 9.908 0 0 0 4.671 1.133c4.8 0 8.715-3.258 8.715-7.262S13.52 0 8.715 0zm0 13.616a8.607 8.607 0 0 1-4.3-1.108.617.617 0 0 0-.309-.081.641.641 0 0 0-.2.033l-2.381.8.954-1.984a.392.392 0 0 0-.058-.427 5.566 5.566 0 0 1-1.33-3.582c0-3.5 3.42-6.354 7.625-6.354s7.625 2.85 7.625 6.354-3.422 6.349-7.626 6.349z" transform="translate(1.453 2.571)" style="fill:#c7c7c7;stroke:#c7c7c7;stroke-width:.6px"/>
    <path style="fill:none" d="M0 0h20v20H0z"/>
</svg>
