<svg xmlns="http://www.w3.org/2000/svg" width="48" height="48" viewBox="0 0 48 48">
    <g data-name="타원 320" style="stroke:#258fff;fill:#fff">
        <circle cx="24" cy="24" r="24" style="stroke:none"/>
        <circle cx="24" cy="24" r="23.5" style="fill:none"/>
    </g>
    <g data-name="그룹 17085">
        <g data-name="그룹 14154">
            <path data-name="패스 5575" d="M21.067 3.1h-2.834v-.733a1.467 1.467 0 1 0-2.933 0V3.1c-2.933-1.544-3.867-1.544-6.8 0v-.733a1.467 1.467 0 1 0-2.933 0V3.1H2.733A1.834 1.834 0 0 0 .9 4.934V19.6a1.834 1.834 0 0 0 1.833 1.834h7.832a.367.367 0 0 0 0-.733H2.733a1.1 1.1 0 0 1-1.1-1.1V8.235h20.534v4.134a.367.367 0 1 0 .733 0V4.934A1.834 1.834 0 0 0 21.067 3.1zm-5.033-.733a.733.733 0 1 1 1.467 0v2.2a.733.733 0 1 1-1.467 0zm-9.733 0a.733.733 0 1 1 1.467 0v2.2a.733.733 0 1 1-1.467 0zM22.167 7.5H1.633V4.934a1.1 1.1 0 0 1 1.1-1.1h2.834v.733a1.467 1.467 0 1 0 2.933 0v-.733c2.933 1.544 3.867 1.544 6.8 0v.733a1.467 1.467 0 1 0 2.933 0v-.733h2.833a1.1 1.1 0 0 1 1.1 1.1z" transform="translate(12.1 12.1)" style="stroke-width:.5px;fill:#258fff;stroke:#258fff"/>
            <path data-name="패스 5585" d="M21.834 16.2a5.634 5.634 0 1 0 5.634 5.634 5.634 5.634 0 0 0-5.634-5.634zm0 10.4a4.767 4.767 0 1 1 4.766-4.766 4.767 4.767 0 0 1-4.766 4.766z" transform="translate(7.532 7.532)" style="stroke-width:.3px;fill:#258fff;stroke:#258fff"/>
            <path data-name="패스 5603" d="M4.851 16.5a.339.339 0 0 1 .351.325v2.929H6.96a.326.326 0 1 1 0 .651H4.851a.339.339 0 0 1-.351-.325v-3.255a.339.339 0 0 1 .351-.325zm0 0" transform="translate(24.5 9.646)" style="stroke-width:.5px;fill:#258fff;stroke:#258fff"/>
            <path data-name="사각형 11728" transform="translate(20.8 13.15)" style="fill:#fff" d="M0 0h6.4v5H0z"/>
            <path data-name="사각형 11729" transform="translate(20.5 15.2)" style="stroke-width:.5px;fill:#258fff;stroke:#258fff" d="M0 0h7v.7H0z"/>
        </g>
        <path data-name="사각형 11718" transform="translate(10 10)" style="fill:none" d="M0 0h28v28H0z"/>
    </g>
</svg>
