<svg xmlns="http://www.w3.org/2000/svg" width="48" height="48" viewBox="0 0 48 48">
    <g data-name="타원 319" style="stroke:#258fff;fill:#fff">
        <circle cx="24" cy="24" r="24" style="stroke:none"/>
        <circle cx="24" cy="24" r="23.5" style="fill:none"/>
    </g>
    <g data-name="그룹 17086">
        <g data-name="그룹 14157">
            <path data-name="패스 5616" d="M19.943 2.967h-2.732v-.689a1.385 1.385 0 0 0-2.77 0v.689a11.392 11.392 0 0 0-1.864-.767c-1.885-.634-3.821-.411-4.445.764v-.686a1.385 1.385 0 0 0-2.77 0v.689H2.631A1.727 1.727 0 0 0 .9 4.69v13.783A1.727 1.727 0 0 0 2.631 20.2h9.694a.345.345 0 1 0 0-.689H2.631a1.039 1.039 0 0 1-1.039-1.034V7.791h19.389v4.126a.346.346 0 0 0 .692 0V4.69a1.727 1.727 0 0 0-1.731-1.723zm-4.809-.689a.692.692 0 0 1 1.385 0v2.068a.692.692 0 0 1-1.385 0zm-9.079 0a.692.692 0 0 1 1.385 0v2.068a.692.692 0 0 1-1.385 0zM20.981 7.1H1.592V4.69a1.039 1.039 0 0 1 1.039-1.033h2.731v.689a1.385 1.385 0 0 0 2.77 0v-.689c.77 1.45 3.54 1.45 6.309 0v.689a1.385 1.385 0 0 0 2.77 0v-.689h2.731a1.039 1.039 0 0 1 1.039 1.033z" transform="translate(13.1 13.1)" style="stroke-width:.5px;fill:#258fff;stroke:#258fff"/>
            <g data-name="그룹 17145">
                <path data-name="선 1" transform="translate(26.48 30.063)" style="stroke-linecap:round;stroke-width:1.3px;fill:none;stroke:#258fff" d="M0 0h8.02"/>
                <path data-name="선 2" transform="translate(30.933 26.626)" style="stroke-linecap:round;stroke-width:1.3px;fill:none;stroke:#258fff" d="m0 0 3.567 3.437"/>
                <path data-name="선 3" transform="translate(30.933 30.063)" style="stroke-linecap:round;stroke-width:1.3px;fill:none;stroke:#258fff" d="M0 3.437 3.567 0"/>
            </g>
            <path data-name="사각형 11726" transform="translate(21.43 14.5)" style="fill:#fff" d="M0 0h5.9v4H0z"/>
            <path data-name="사각형 11727" transform="translate(21 16.05)" style="stroke-width:.4px;fill:#258fff;stroke:#258fff" d="M0 0h7v.7H0z"/>
        </g>
        <path data-name="사각형 11719" transform="translate(10 10)" style="fill:none" d="M0 0h28v28H0z"/>
    </g>
</svg>
