<svg xmlns="http://www.w3.org/2000/svg" width="90" height="90" viewBox="0 0 90 90">
    <defs>
        <clipPath id="37hxr8yh2a">
            <path data-name="사각형 6470" style="fill:#fff;stroke:#707070" d="M0 0h90v90H0z"/>
        </clipPath>
    </defs>
    <g style="clip-path:url(#37hxr8yh2a)">
        <path data-name="패스 7231" d="M78.7 46.236V16.715a.845.845 0 0 1 .845-.844h5.844a.87.87 0 0 1 .754.709c0 .014.008.064.008.075V52.142a.845.845 0 0 1-.845.844h-5.761a.845.845 0 0 1-.845-.844v-5.9zm1.69-14.246v.361l3.738-3.831-3.738-3.831zm.335 2.435 3.738 3.831V30.6zm3.738 7.981-3.738 3.831 3.738 3.831zm-.335-2.075L80.39 36.5v7.661zM80.39 17.553v2.987l2.91-2.987zm4.074 4.361v-3.13l-3.738 3.831 3.738 3.831zM83.3 51.3l-2.91-2.988V51.3z" transform="translate(-52.942 8.997)" style="fill:#baafb9"/>
        <path data-name="패스 7232" d="M17.518 53.142h3.813V50.61a.845.845 0 0 1 1.69 0v2.532h3.814a.844.844 0 1 1 0 1.689h-3.814V60a.845.845 0 0 1-1.69 0v-5.17h-3.813a.844.844 0 1 1 0-1.689z" transform="translate(37.047 -7.679)" style="fill:#737a93"/>
        <path data-name="패스 7233" d="M0 53.839V73.7c0 .289.18.53.4.53h17.833c.223 0 .4-.241.4-.53V37.23c0-.293-.177-.53-.4-.53H9.571a.245.245 0 0 0-.253.263v16.612H.29a.289.289 0 0 0-.29.264z" transform="translate(54.566 -1.252)" style="fill-rule:evenodd;fill:#e8eaea"/>
        <path data-name="패스 7234" d="m25.887 21.739 3.937-4.166v-3.754a.845.845 0 0 1 1.69 0v3.756l3.91 4.164a.845.845 0 0 1-1.23 1.157l-3.527-3.756-3.55 3.76a.845.845 0 0 1-1.23-1.157z" transform="translate(24.51 10.419)" style="fill:#737a93"/>
        <path data-name="패스 7235" d="M23.694 7.41h3.839l-4.427-4.3a.843.843 0 0 1 .524-1.447h24.702a1.48 1.48 0 0 1 1.547 1.4V7.7a1.479 1.479 0 0 1-1.547 1.4H23.694a.844.844 0 1 1 0-1.689zm24.5 0V3.35h-.468L43.54 7.409zM45.3 3.35h-7.682l3.839 3.727zm-9.062 4.06h3.136l-3.838-3.727L31.7 7.41zm-2.784-4.06h-7.678l3.839 3.727z" transform="translate(11.711 15.983)" style="fill:#baafb9"/>
        <path data-name="패스 7236" d="M97.565 1.662h5.267a.843.843 0 0 1 .544 1.448l-4.429 4.3h3.84a.844.844 0 1 1 0 1.689h-5.222a1.637 1.637 0 0 1-.985-.322.851.851 0 0 1-.137-.114l-.027-.031a1.319 1.319 0 0 1-.4-.93V3.059a1.478 1.478 0 0 1 1.544-1.4zm.146 4.594 2.989-2.905h-2.989z" transform="translate(-79.221 15.983)" style="fill:#baafb9"/>
        <g data-name="그룹 15192">
            <path data-name="패스 7237" d="M7.3 78.2v4.279h5.187a.42.42 0 0 0 .419-.417V78.62a.422.422 0 0 0-.419-.417z" transform="translate(56.578 -21.667)" style="fill:#89c3ff;fill-rule:evenodd"/>
            <path data-name="패스 7238" d="M18.337 78.62v3.445a.416.416 0 0 0 .415.417h5.186V78.2h-5.186a.418.418 0 0 0-.415.42z" transform="translate(39.944 -21.667)" style="fill:#89c3ff;fill-rule:evenodd"/>
            <path data-name="패스 7239" d="M18.337 95.333v3.445a.416.416 0 0 0 .415.417h5.186v-4.28h-5.186a.418.418 0 0 0-.415.418z" transform="translate(39.944 -29.888)" style="fill:#89c3ff;fill-rule:evenodd"/>
            <path data-name="패스 7240" d="M7.3 94.916V99.2h5.187a.42.42 0 0 0 .419-.417v-3.45a.422.422 0 0 0-.419-.417z" transform="translate(56.578 -29.888)" style="fill:#89c3ff;fill-rule:evenodd"/>
            <path data-name="패스 7241" d="M7.3 78.2h5.186a.422.422 0 0 1 .419.418v1.722a.422.422 0 0 0-.419-.418H7.3z" transform="translate(56.578 -21.667)" style="fill:#258fff;fill-rule:evenodd"/>
            <path data-name="패스 7242" d="M18.752 78.2h5.187v1.722h-5.187a.419.419 0 0 0-.416.418v-1.72a.419.419 0 0 1 .416-.42z" transform="translate(39.944 -21.667)" style="fill:#258fff;fill-rule:evenodd"/>
            <path data-name="패스 7243" d="M18.752 94.915h5.187v1.722h-5.187a.419.419 0 0 0-.416.418v-1.722a.419.419 0 0 1 .416-.418z" transform="translate(39.944 -29.888)" style="fill:#258fff;fill-rule:evenodd"/>
            <path data-name="패스 7244" d="M7.3 94.915h5.186a.422.422 0 0 1 .419.418v1.722a.422.422 0 0 0-.419-.418H7.3z" transform="translate(56.578 -29.888)" style="fill:#258fff;fill-rule:evenodd"/>
        </g>
        <path data-name="패스 7245" d="M18.364 78.2h-1.69v4.279h1.69z" transform="translate(46.363 -21.667)" style="fill:#cecece"/>
        <path data-name="패스 7246" d="M18.364 94.916h-1.69V99.2h1.69z" transform="translate(46.363 -29.888)" style="fill:#cecece"/>
        <path data-name="패스 7247" d="M31.588 90.038V70.175a.29.29 0 0 1 .29-.263h2.181a.287.287 0 0 0-.287.263v19.863c0 .289.18.53.4.53h-2.185c-.219 0-.399-.241-.399-.53z" transform="translate(22.978 -17.589)" style="fill:#d4d6d8;fill-rule:evenodd"/>
        <path data-name="패스 7248" d="M15.714 40.8v12.775H13.53V36.963a.246.246 0 0 1 .254-.263h2.187a.246.246 0 0 0-.258.263z" transform="translate(50.352 -1.252)" style="fill:#d4d6d8;fill-rule:evenodd"/>
        <path data-name="패스 7249" d="M9.971 42.6v1.583a.814.814 0 0 0 .293.053h3.112a.844.844 0 1 0 0-1.689h-3.112a.816.816 0 0 0-.293.053z" transform="translate(53.912 -4.126)" style="fill:#258fff"/>
        <path data-name="패스 7250" d="M9.971 51.9v1.689h3.4a.844.844 0 1 0 0-1.689z" transform="translate(53.912 -8.731)" style="fill:#258fff"/>
        <path data-name="패스 7251" d="M74.931.434h10.744a.547.547 0 0 1 .548.546v7.592a.549.549 0 0 1-.548.546H74.931a.549.549 0 0 1-.548-.546V.98a.546.546 0 0 1 .548-.546z" transform="translate(-50.818 16.587)" style="fill:#fdb440;fill-rule:evenodd"/>
        <path data-name="패스 7252" d="M88.9 1.9V.98a.547.547 0 0 1 .55-.546h3.914a.549.549 0 0 0-.548.546v7.592a.551.551 0 0 0 .548.546h-3.913a.549.549 0 0 1-.548-.546V1.9z" transform="translate(-65.337 16.587)" style="fill:#fe9737;fill-rule:evenodd"/>
        <path data-name="패스 7253" d="M70.973 96.026v-7.487a1.281 1.281 0 0 1 1.282-1.276h13.011a1.28 1.28 0 0 1 1.279 1.276v7.486z" transform="translate(-49.408 -26.124)" style="fill:#fdb440;fill-rule:evenodd"/>
        <path data-name="패스 7254" d="M67.208 102.276h17.344a2.116 2.116 0 0 1 2.113 2.108v1.539a.57.57 0 0 1-.57.566h-22.2a.567.567 0 0 1-.567-.566v-1.539a2.115 2.115 0 0 1 2.11-2.108z" transform="translate(-45.643 -33.509)" style="fill:#cecece;fill-rule:evenodd"/>
        <path data-name="패스 7255" d="M91.395 88.539a1.281 1.281 0 0 1 1.282-1.276h3.914a1.28 1.28 0 0 0-1.279 1.276v6.352h-3.917z" transform="translate(-69.829 -26.124)" style="fill:#fe9737;fill-rule:evenodd"/>
        <path data-name="패스 7256" d="M97.4 104.384a2.115 2.115 0 0 1 2.11-2.108h3.917a2.116 2.116 0 0 0-2.113 2.108v1.539a.57.57 0 0 0 .57.566h-3.918a.567.567 0 0 1-.567-.566v-1.539z" transform="translate(-79.715 -33.509)" style="fill-rule:evenodd;fill:#baafb9"/>
        <path data-name="패스 7257" d="M25.158 34.668v-3.949a.5.5 0 0 1 .5-.495h9.481a.5.5 0 0 1 .5.495v3.949a.5.5 0 0 1-.5.5h-9.481a.5.5 0 0 1-.5-.5z" transform="translate(24.781 1.933)" style="fill:#cecece;fill-rule:evenodd"/>
        <path data-name="패스 7258" d="M38.921 30.224h3.238a.5.5 0 0 0-.5.495v3.949a.5.5 0 0 0 .5.5h-3.238a.5.5 0 0 1-.5-.5v-3.949a.5.5 0 0 1 .5-.495z" transform="translate(11.518 1.933)" style="fill-rule:evenodd;fill:#baafb9"/>
    </g>
</svg>
