<svg xmlns="http://www.w3.org/2000/svg" width="48" height="48" viewBox="0 0 48 48">
    <g data-name="타원 322" style="stroke:#258fff;fill:#fff">
        <circle cx="24" cy="24" r="24" style="stroke:none"/>
        <circle cx="24" cy="24" r="23.5" style="fill:none"/>
    </g>
    <g data-name="그룹 17087">
        <g data-name="그룹 14204">
            <path data-name="패스 5649" d="m21.535 18.27-8.929-8.3c2.907-2.922-.471-.438-.471-.438L8.316 5.989l.019-.019a1.887 1.887 0 0 0 .491-1.781c-.312-1.317.781-1.9 2.109-2.09a.534.534 0 0 0 .26-.941c-1.7-1.387-3.82-1.106-5.669.753l-2.85 2.863a.886.886 0 0 0-.034 1.211l-.5.5a.867.867 0 0 0-1.2.03l-.69.693a.881.881 0 0 0 0 1.24l2.19 2.2a.871.871 0 0 0 1.234 0l.69-.693a.88.88 0 0 0 0-1.24l-.04-.04.493-.5.054.054a.851.851 0 0 0 1.206 0l.008-.008 3.53 3.836c-2.719 2.732.436.474.436.474l8.256 8.973a1.443 1.443 0 0 0 2.087.041l1.177-1.182a1.459 1.459 0 0 0-.041-2.1zm-8.32-3.252 1.862-1.871.525.488-1.9 1.91zM3.916 9.5l-.69.693a.231.231 0 0 1-.327 0l-2.19-2.2a.233.233 0 0 1 0-.329l.69-.693a.23.23 0 0 1 .327 0l2.19 2.2a.233.233 0 0 1 0 .329zm-.04-1.28L2.6 6.938l.493-.5 1.276 1.285zm1.454-.443-2.2-2.211a.239.239 0 0 1 0-.337l2.849-2.862C7.521.817 9.187.51 10.587 1.5 8.972 1.811 7.818 2.718 8.2 4.339a1.245 1.245 0 0 1-.32 1.175L5.629 7.777a.211.211 0 0 1-.3 0zm2.532-1.332 6.738 6.264-1.826 1.835-6.229-6.775zm13.26 13.465-1.177 1.182a.8.8 0 0 1-1.162-.023l-4.648-5.051 1.937-1.946 5.027 4.67a.812.812 0 0 1 .023 1.169z" transform="translate(13 12.871)" style="fill:#258fff;stroke-width:.5px;stroke:#258fff"/>
            <path data-name="패스 5650" d="M9.685 18.078 7.96 19.8c-1.573 1.573-.3 3.1-1.97 4.664a3.15 3.15 0 0 1-4.374-4.533c1.543-1.543 3.056-.36 4.586-1.889l1.814-1.814a.315.315 0 1 0-.445-.445L5.756 17.6c-1.3 1.3-2.868.172-4.586 1.889a3.78 3.78 0 0 0 5.249 5.438c1.836-1.713.671-3.365 1.985-4.679l1.725-1.725a.315.315 0 0 0-.445-.445z" transform="translate(12.982 9.064)" style="fill:#258fff;stroke-width:.5px;stroke:#258fff"/>
            <path data-name="패스 5651" d="M4.986 21.915H4.1a.912.912 0 0 0-.649.269l-.629.629a.912.912 0 0 0-.269.649v.89a.912.912 0 0 0 .264.648l.629.629a.912.912 0 0 0 .654.271h.89a.912.912 0 0 0 .649-.269L6.264 25a.912.912 0 0 0 .269-.649v-.89a.912.912 0 0 0-.269-.649l-.629-.629a.912.912 0 0 0-.649-.269zm.914 1.548v.89a.287.287 0 0 1-.085.2l-.629.629a.287.287 0 0 1-.2.085H4.1a.287.287 0 0 1-.2-.085l-.629-.629a.287.287 0 0 1-.085-.2v-.89a.287.287 0 0 1 .085-.2l.629-.629a.287.287 0 0 1 .2-.085h.89a.287.287 0 0 1 .2.085l.629.629a.287.287 0 0 1 .081.2z" transform="translate(12.285 7.318)" style="fill:#258fff;stroke-width:.5px;stroke:#258fff"/>
            <path data-name="패스 5652" d="m16.506 7.819 1.976-1.976a2.408 2.408 0 0 0 .635-2.243 1.765 1.765 0 0 1 .8-1.933l1.348-.81a1.086 1.086 0 0 1 .987-.069.326.326 0 0 1-.031.425l-1.359 1.36c-.4.4-.247.885-.271 1.153a.956.956 0 0 0 .281.659l.866.866a.963.963 0 0 0 .714.281 1.383 1.383 0 0 0 1.043-.3l1.379-1.379a.328.328 0 0 1 .425-.031 1.086 1.086 0 0 1-.069.987l-.81 1.348a1.757 1.757 0 0 1-1.913.808 2.394 2.394 0 0 0-2.259.624l-1.879 1.883a.315.315 0 1 0 .445.445l1.878-1.878a1.769 1.769 0 0 1 1.67-.456 2.385 2.385 0 0 0 2.6-1.1l.81-1.348a1.653 1.653 0 0 0 .01-1.725.956.956 0 0 0-1.351 0L23.05 4.791c-.144.144-.3.082-.621.111a.333.333 0 0 1-.246-.1c-.816-.855-.958-.864-.963-1.093.013-.36-.07-.537.087-.695l1.363-1.36a.94.94 0 0 0-.084-1.411 1.713 1.713 0 0 0-1.641.071l-1.348.81a2.392 2.392 0 0 0-1.092 2.618 1.774 1.774 0 0 1-.468 1.658l-1.976 1.974a.315.315 0 0 0 .445.445z" transform="translate(8.938 12.933)" style="fill:#258fff;stroke-width:.5px;stroke:#258fff"/>
            <path data-name="패스 38155" d="m9.319 11.289 1.549 1.483-2.227 1.36-.766-1.005z" transform="rotate(3 -238.1 258.872)" style="fill:#fff"/>
            <path data-name="패스 38156" d="m11.585 9.03 1.578 1.484 1.3-1.734-1.049-.827z" transform="translate(13.134 12.626)" style="fill:#fff"/>
            <path data-name="패스 38157" d="m12.719 13.969 1.375-1.531 2.234 2.094-1.628 1.64z" style="fill:#fff" transform="translate(13 13)"/>
        </g>
        <path data-name="사각형 11720" transform="translate(10 10)" style="fill:none" d="M0 0h28v28H0z"/>
    </g>
</svg>
