<svg xmlns="http://www.w3.org/2000/svg" width="21" height="21" viewBox="0 0 21 21">
    <g data-name="그룹 13469">
        <path data-name="사각형 5468" style="fill:none" d="M0 0h21v21H0z"/>
        <path data-name="Icon material-thumb-up" d="M1.5 18.605h3.421V8.342H1.5zM20.316 9.2a1.716 1.716 0 0 0-1.711-1.711h-5.4l.813-3.909.026-.274a1.287 1.287 0 0 0-.376-.907l-.907-.9-5.625 5.637a1.672 1.672 0 0 0-.5 1.206v8.553a1.716 1.716 0 0 0 1.711 1.711h7.7a1.7 1.7 0 0 0 1.574-1.043l2.583-6.03a1.69 1.69 0 0 0 .12-.624V9.274l-.009-.009z" transform="translate(-.5 .5)" style="fill:#999999"/>
    </g>
</svg>
