<svg xmlns="http://www.w3.org/2000/svg" width="22" height="30" viewBox="0 0 22 30">
    <path data-name="빼기 1" d="M8 22a9.5 9.5 0 0 0-.652-.887c-.976-1.277-2.791-3.655-4.39-6.156C1 11.883 0 9.616 0 8.22a8.962 8.962 0 0 1 1.749-5.6A7.57 7.57 0 0 1 8 0a7.562 7.562 0 0 1 6.218 2.615A8.9 8.9 0 0 1 16 8.22c0 2.086-2.128 5.707-3.912 8.378A43.251 43.251 0 0 1 8 22zM8 3a4 4 0 1 0 4 4 4 4 0 0 0-4-4z" transform="translate(3 4)" style="fill:#ffffff"/>
    <path style="fill:none" d="M0 0h22v30H0z"/>
</svg>
