<svg xmlns="http://www.w3.org/2000/svg" width="24" height="24" viewBox="0 0 24 24">
    <path data-name="사각형 5962" style="fill:#fff" d="M0 0h24v24H0z"/>
    <path data-name="Icon material-phone" d="M7.158 10.8a13.216 13.216 0 0 0 5.749 5.749l1.919-1.919a.867.867 0 0 1 .89-.209 9.951 9.951 0 0 0 3.114.5.875.875 0 0 1 .872.872v3.045a.875.875 0 0 1-.872.872A14.829 14.829 0 0 1 4 4.872.875.875 0 0 1 4.872 4h3.054a.875.875 0 0 1 .872.872 9.911 9.911 0 0 0 .5 3.114.875.875 0 0 1-.218.89L7.158 10.8z"/>
</svg>
