<svg data-name="price rate_ic" xmlns="http://www.w3.org/2000/svg" width="24" height="24" viewBox="0 0 24 24">
    <path data-name="Icon ionic-ios-paper" d="M7.029 4.913v15.481a.675.675 0 0 1-.673.673.675.675 0 0 1-.673-.673V6.452h-.77A1.537 1.537 0 0 0 3.375 7.99v13.847a1.537 1.537 0 0 0 1.538 1.538h16.976a1.487 1.487 0 0 0 1.486-1.486V4.913a1.537 1.537 0 0 0-1.538-1.538l-13.365.1a1.378 1.378 0 0 0-1.443 1.438zM10.2 6.452h4.04a.675.675 0 0 1 .673.673.675.675 0 0 1-.673.673H10.2a.675.675 0 0 1-.673-.673.675.675 0 0 1 .673-.673zm0 7.692h7.115a.675.675 0 0 1 .673.673.675.675 0 0 1-.673.673H10.2a.675.675 0 0 1-.673-.673.675.675 0 0 1 .673-.673zm9.423 5.192H10.2a.675.675 0 0 1-.673-.673.675.675 0 0 1 .673-.673h9.423a.675.675 0 0 1 .673.673.675.675 0 0 1-.671.674zm0-7.692H10.2a.675.675 0 0 1-.673-.673.675.675 0 0 1 .673-.671h9.423a.675.675 0 0 1 .673.673.675.675 0 0 1-.671.671z" transform="translate(-1.375 -1.375)" style="fill:#c7c7c7"/>
    <path style="fill:none" d="M0 0h24v24H0z"/>
</svg>
