<svg xmlns="http://www.w3.org/2000/svg" width="80" height="80" viewBox="0 0 80 80">
    <g transform="translate(-245 -232)">
        <circle data-name="타원 322" cx="40" cy="40" r="40" transform="translate(245 232)" style="fill:#f2f2f2"/>
        <g data-name="그룹 17087">
            <g data-name="그룹 14204">
                <path data-name="패스 5649" d="M33.117 27.942 19.385 15.185c4.471-4.493-.725-.674-.725-.674l-5.871-5.455.03-.03a2.9 2.9 0 0 0 .755-2.738c-.48-2.025 1.2-2.918 3.244-3.215a.821.821 0 0 0 .4-1.447C14.6-.507 11.342-.074 8.5 2.784l-4.382 4.4a1.363 1.363 0 0 0-.052 1.862l-.766.77a1.334 1.334 0 0 0-1.847.046l-1.06 1.067a1.355 1.355 0 0 0 0 1.908l3.368 3.385a1.339 1.339 0 0 0 1.9 0l1.059-1.067a1.353 1.353 0 0 0 0-1.908l-.061-.061.758-.762.082.083a1.309 1.309 0 0 0 1.855 0l.012-.012 5.428 5.9c-4.182 4.2.67.729.67.729l12.7 13.8a2.219 2.219 0 0 0 3.209.063l1.81-1.818a2.243 2.243 0 0 0-.063-3.225zm-12.8-5 2.863-2.877.807.75-2.924 2.938zm-14.3-8.488L4.961 15.52a.355.355 0 0 1-.5 0L1.09 12.135a.359.359 0 0 1 0-.505l1.061-1.066a.354.354 0 0 1 .5 0l3.368 3.385a.358.358 0 0 1 0 .505zm-.061-1.969L4 10.515l.758-.762 1.96 1.97zm2.244-.679-3.383-3.4a.368.368 0 0 1 0-.518L9.2 3.486C11.567 1.1 14.129.631 16.282 2.159c-2.484.473-4.259 1.867-3.668 4.36a1.914 1.914 0 0 1-.493 1.807l-3.464 3.48a.325.325 0 0 1-.46 0zm3.894-2.048 10.366 9.633-2.808 2.822-9.587-10.419zm20.388 20.708-1.81 1.818a1.234 1.234 0 0 1-1.787-.035l-7.147-7.768 2.978-2.993 7.731 7.182a1.249 1.249 0 0 1 .035 1.796z" transform="translate(268.083 255.039)" style="fill:#222;stroke:#222;stroke-width:.5px"/>
                <path data-name="패스 5650" d="m14.86 19.361-2.653 2.653c-2.419 2.419-.458 4.773-3.029 7.172a4.845 4.845 0 0 1-6.727-6.971c2.373-2.373 4.7-.553 7.052-2.905l2.79-2.79a.484.484 0 0 0-.684-.684l-2.79 2.79c-2 2-4.411.264-7.052 2.9a5.813 5.813 0 0 0 8.072 8.363c2.824-2.635 1.032-5.174 3.053-7.2l2.653-2.653a.484.484 0 0 0-.684-.684z" transform="translate(268.09 257.471)" style="fill:#222;stroke:#222;stroke-width:.5px"/>
                <path data-name="패스 5651" d="M6.3 21.915H4.928a1.4 1.4 0 0 0-1 .413l-.968.968a1.4 1.4 0 0 0-.414 1v1.369a1.4 1.4 0 0 0 .413 1l.968.968a1.4 1.4 0 0 0 1 .414H6.3a1.4 1.4 0 0 0 1-.413l.968-.968a1.4 1.4 0 0 0 .414-1v-1.371a1.4 1.4 0 0 0-.414-1l-.968-.966a1.4 1.4 0 0 0-1-.414zm1.412 2.38v1.369a.441.441 0 0 1-.13.314l-.968.968a.441.441 0 0 1-.314.13H4.928a.441.441 0 0 1-.314-.13l-.968-.968a.441.441 0 0 1-.13-.314v-1.369a.441.441 0 0 1 .13-.314l.968-.968a.441.441 0 0 1 .314-.13H6.3a.441.441 0 0 1 .314.13l.968.968a.441.441 0 0 1 .127.314z" transform="translate(268.354 258.132)" style="fill:#222;stroke:#222;stroke-width:.5px"/>
                <path data-name="패스 5652" d="m16.795 11.988 3.039-3.039a3.7 3.7 0 0 0 .977-3.455 2.715 2.715 0 0 1 1.236-2.973l2.073-1.245a1.67 1.67 0 0 1 1.518-.106.5.5 0 0 1-.048.653l-2.1 2.1c-.62.62-.38 1.36-.417 1.774a1.471 1.471 0 0 0 .432 1.013l1.332 1.332a1.481 1.481 0 0 0 1.1.432 2.127 2.127 0 0 0 1.6-.454l2.127-2.12a.5.5 0 0 1 .653-.048 1.67 1.67 0 0 1-.106 1.518l-1.246 2.07a2.7 2.7 0 0 1-2.943 1.243 3.682 3.682 0 0 0-3.474.959l-2.888 2.889a.484.484 0 1 0 .684.684l2.889-2.889a2.72 2.72 0 0 1 2.568-.7 3.667 3.667 0 0 0 3.994-1.687l1.246-2.074a2.541 2.541 0 0 0 .016-2.653 1.471 1.471 0 0 0-2.077 0l-2.121 2.12c-.221.221-.468.126-.955.171a.512.512 0 0 1-.379-.149c-1.255-1.315-1.474-1.329-1.481-1.681.021-.553-.108-.826.134-1.069l2.1-2.1a1.446 1.446 0 0 0-.13-2.17 2.634 2.634 0 0 0-2.524.109l-2.076 1.249a3.679 3.679 0 0 0-1.679 4.027 2.728 2.728 0 0 1-.72 2.546L16.11 11.3a.484.484 0 0 0 .685.684z" transform="translate(270.425 255.016)" style="fill:#222;stroke:#222;stroke-width:.5px"/>
                <path data-name="패스 38155" d="m9.683 11.682 1.935 2.1-2.881 1.188-.542-.97z" transform="translate(272.346 261.235)" style="fill:#f2f2f2"/>
                <path data-name="패스 38156" d="m11.679 9.315 2.2 2.068 1.642-2.709-1.274-.721z" transform="translate(274.545 259.361)" style="fill:#f2f2f2"/>
                <path data-name="패스 38157" d="m12.418 14.559 2.55-2.186L18.6 15.7l-2.726 2.687z" transform="translate(274.863 261.767)" style="fill:#f2f2f2"/>
            </g>
            <path data-name="사각형 11720" transform="translate(265 252)" style="fill:none" d="M0 0h40v40H0z"/>
        </g>
    </g>
</svg>
