<?xml version="1.0" encoding="UTF-8"?><svg id="_이어_2" xmlns="http://www.w3.org/2000/svg" xmlns:xlink="http://www.w3.org/1999/xlink" viewBox="0 0 129.86 37.03"><defs><style>.cls-1{fill:url(#_제_그라디언트_638-4);}.cls-2{fill:url(#_제_그라디언트_638-8);}.cls-3{fill:url(#_제_그라디언트_638-3);}.cls-4{fill:url(#_제_그라디언트_638);}.cls-5{fill:url(#_제_그라디언트_638-7);}.cls-6{fill:url(#_제_그라디언트_638-9);}.cls-7{fill:url(#_제_그라디언트_638-2);}.cls-8{fill:url(#_제_그라디언트_638-5);}.cls-9{fill:url(#_제_그라디언트_638-6);}</style><linearGradient id="_제_그라디언트_638" x1="144.3" y1="18.51" x2="-2.39" y2="18.51" gradientTransform="matrix(1, 0, 0, 1, 0, 0)" gradientUnits="userSpaceOnUse"><stop offset="0" stop-color="#0cf"/><stop offset="1" stop-color="#3023ee"/></linearGradient><linearGradient id="_제_그라디언트_638-2" x1="136.31" y1="21.81" x2="-22.09" y2="21.81" xlink:href="#_제_그라디언트_638"/><linearGradient id="_제_그라디언트_638-3" x1="216.35" y1="8.24" x2="-55.88" y2="8.24" xlink:href="#_제_그라디언트_638"/><linearGradient id="_제_그라디언트_638-4" x1="144.3" y1="10.57" x2="-2.39" y2="10.57" xlink:href="#_제_그라디언트_638"/><linearGradient id="_제_그라디언트_638-5" x1="144.3" y1="27.53" x2="-2.39" y2="27.53" xlink:href="#_제_그라디언트_638"/><linearGradient id="_제_그라디언트_638-6" x1="151.73" y1="21.81" x2="-6.66" y2="21.81" xlink:href="#_제_그라디언트_638"/><linearGradient id="_제_그라디언트_638-7" x1="144.12" y1="18.46" x2="-2.57" y2="18.46" xlink:href="#_제_그라디언트_638"/><linearGradient id="_제_그라디언트_638-8" x1="144.3" y1="25.49" x2="-2.39" y2="25.49" xlink:href="#_제_그라디언트_638"/><linearGradient id="_제_그라디언트_638-9" x1="144.3" y1="18.31" x2="-2.39" y2="18.31" xlink:href="#_제_그라디언트_638"/></defs><g id="_이어_1-2"><g><path class="cls-4" d="M26.3,28.7c-2.27,2-5.19,3.1-8.41,3.1-3.5,0-6.69-1.52-9-3.92-2.3-2.41-3.77-5.65-3.77-9.31s1.47-7.01,3.77-9.41c2.3-2.41,5.49-3.92,9-3.92,3.25,0,6.17,1.03,8.4,3.04,.46-.62,.96-1.21,1.51-1.78,.66-.67,1.37-1.27,2.12-1.82C26.81,1.7,22.64,0,17.89,0S8.42,2.14,5.23,5.44C2.09,8.79,0,13.39,0,18.57s2.09,9.67,5.23,13.02c3.19,3.35,7.69,5.44,12.66,5.44s8.9-1.75,12.03-4.73c-.76-.55-1.47-1.16-2.12-1.84-.54-.56-1.04-1.15-1.49-1.76Z"/><path class="cls-7" d="M37.25,24.22c-1.65-1.65-2.56-3.85-2.56-6.18,0-.69,.09-1.41,.28-2.14l.06-.24-3.58-3.12-.21,.52c-.66,1.6-.99,3.28-.99,4.98,0,3.46,1.36,6.77,3.83,9.32,1.77,1.82,4.03,3.07,6.53,3.61l.49,.1v-4.56l-.28-.09c-1.34-.43-2.57-1.19-3.56-2.2Z"/><path class="cls-3" d="M49.35,11.66l3.35-2.92-.32-.3c-2.48-2.34-5.69-3.63-9.02-3.63s-6.53,1.29-8.99,3.63l-.32,.3,3.37,2.94,.26-.23c1.59-1.41,3.6-2.19,5.67-2.19s4.11,.77,5.72,2.18l.26,.23Z"/><path class="cls-1" d="M111.41,5.4v3.39h13.59l-5.01,6.94c1.45-.08,2.88-.14,4.3-.18l5.58-7.79-1.24-2.36h-17.22Z"/><g><path class="cls-8" d="M101.82,25.21l2.28,5.99h3.92l-2.9-7.33c-1.17,.44-2.27,.89-3.3,1.34Z"/><path class="cls-9" d="M55.53,13.06l-.21-.52-3.58,3.12,.06,.24c.18,.73,.27,1.44,.27,2.14,0,2.32-.9,4.52-2.53,6.18-1.01,1.01-2.25,1.76-3.6,2.19l-.28,.09v4.57l.49-.11c2.48-.54,4.74-1.78,6.53-3.61,2.47-2.55,3.83-5.86,3.83-9.32,0-1.7-.33-3.38-.99-4.98Z"/><polygon class="cls-5" points="77.56 23.67 63.54 5.76 60.33 5.72 60.33 31.19 64.48 31.19 64.48 13.43 78.39 31.19 81.68 31.19 81.68 5.76 77.56 5.76 77.56 23.67"/><path class="cls-2" d="M121.26,19.79c-1.68,.25-3.28,.54-4.82,.85l-6.12,8.48,1.49,2.07h17.84v-3.32h-14.17l5.78-8.08Z"/><path class="cls-6" d="M129.57,17.06c-11.25,.09-28.98,1.07-37.58,6l4.51-11.77,2.78,7.28c1.1-.29,2.24-.56,3.42-.8l-4.89-12.33h-2.69l-10.21,25.76h3.96s12.49-12.24,40.72-13.86c-.02-.09-.02-.18-.03-.28Z"/></g></g></g></svg>